<svg xmlns="http://www.w3.org/2000/svg" xmlns:xlink="http://www.w3.org/1999/xlink" width="53.453" height="53.453" viewBox="0 0 53.453 53.453">
  <defs>
    <filter id="logo_shadow" x="0" y="0" width="53.453" height="53.453" filterUnits="userSpaceOnUse">
      <feOffset dy="3" input="SourceAlpha"/>
      <feGaussianBlur stdDeviation="3" result="blur"/>
      <feFlood flood-opacity="0.161"/>
      <feComposite operator="in" in2="blur"/>
      <feComposite in="SourceGraphic"/>
    </filter>
    <clipPath id="clip-path">
      <circle id="logo" cx="17.727" cy="17.727" r="17.727" fill="#fff" stroke="#707070" stroke-width="1"/>
    </clipPath>
  </defs>
  <g id="dashboard_button" data-name="dashboard button" transform="translate(9 6)">
    <g transform="matrix(1, 0, 0, 1, -9, -6)" filter="url(#logo_shadow)">
      <g id="logo_shadow-2" data-name="logo shadow" transform="translate(9 6)" fill="#fff" stroke="#707070" stroke-width="1">
        <circle cx="17.727" cy="17.727" r="17.727" stroke="none"/>
        <circle cx="17.727" cy="17.727" r="17.227" fill="none"/>
      </g>
    </g>
    <g id="Mask_Group_1" data-name="Mask Group 1" clip-path="url(#clip-path)">
      <g id="yellow_money_bag" data-name="yellow money bag" transform="translate(-0.558 -1.329)">
        <g id="BACKGROUND">
          <rect id="Rectangle_530" data-name="Rectangle 530" width="36.782" height="36.782" fill="#cfd8dc"/>
        </g>
        <g id="OBJECTS" transform="translate(6.621 7.861)">
          <g id="Group_2" data-name="Group 2" opacity="0.2">
            <path id="Path_198" data-name="Path 198" d="M107.655,139.62v.23c-.187,9.526-17.468,9.526-17.655,0v-.23c0-4.4,3.928-7.495,7.545-9.456h-.818a.73.73,0,1,1,0-1.461h1.391a11.649,11.649,0,0,1-3.769-2.841h8.957a11.649,11.649,0,0,1-3.769,2.841h1.391a.73.73,0,1,1,0,1.461h-.818C103.727,132.123,107.655,135.213,107.655,139.62Z" transform="translate(-90 -124.462)" fill="#40c4ff" opacity="0"/>
            <path id="Path_199" data-name="Path 199" d="M108.484,139.24v.23c-.185,9.526-17.46,9.526-17.644,0v-.23c0-4.4,3.928-7.5,7.545-9.458h-.822a.73.73,0,1,1,0-1.461h1.391a11.649,11.649,0,0,1-3.769-2.841h8.957a11.649,11.649,0,0,1-3.769,2.841h1.391a.73.73,0,0,1,0,1.461h-.818C104.562,131.742,108.484,134.836,108.484,139.24Z" transform="translate(-90.778 -124.11)" fill="#3fc1fb" opacity="0.02"/>
            <path id="Path_200" data-name="Path 200" d="M109.266,138.87v.23c-.185,9.526-17.451,9.526-17.636,0v-.23c0-4.4,3.928-7.5,7.545-9.458h-.824a.73.73,0,1,1,0-1.461h1.391a11.649,11.649,0,0,1-3.769-2.841h8.959a11.649,11.649,0,0,1-3.769,2.841h1.391a.73.73,0,0,1,0,1.461h-.818C105.352,131.372,109.266,134.466,109.266,138.87Z" transform="translate(-91.51 -123.767)" fill="#3fbef7" opacity="0.039"/>
            <path id="Path_201" data-name="Path 201" d="M110.039,138.5v.23c-.185,9.526-17.445,9.526-17.629,0v-.23c0-4.4,3.928-7.5,7.545-9.458h-.822a.73.73,0,0,1,0-1.461h1.391a11.65,11.65,0,0,1-3.769-2.841h8.957a11.65,11.65,0,0,1-3.769,2.841h1.39a.73.73,0,1,1,0,1.461h-.818C106.136,131,110.039,134.1,110.039,138.5Z" transform="translate(-92.233 -123.425)" fill="#3ebbf3" opacity="0.059"/>
            <path id="Path_202" data-name="Path 202" d="M110.831,138.13v.23c-.184,9.526-17.435,9.526-17.621,0v-.23c0-4.4,3.928-7.5,7.545-9.458h-.823a.73.73,0,0,1,0-1.461h1.391a11.65,11.65,0,0,1-3.769-2.841h8.956a11.65,11.65,0,0,1-3.768,2.842h1.391a.73.73,0,1,1,0,1.461h-.818C106.932,130.632,110.831,133.725,110.831,138.13Z" transform="translate(-92.974 -123.082)" fill="#3eb9ef" opacity="0.078"/>
            <path id="Path_203" data-name="Path 203" d="M111.595,137.756v.23c-.185,9.526-17.43,9.526-17.615,0v-.23c0-4.4,3.928-7.5,7.545-9.458H100.7a.73.73,0,1,1,0-1.461h1.391A11.649,11.649,0,0,1,98.322,124h8.96a11.65,11.65,0,0,1-3.769,2.841H104.9a.73.73,0,0,1,0,1.461h-.818C107.7,130.261,111.595,133.355,111.595,137.756Z" transform="translate(-93.687 -122.739)" fill="#3db6eb" opacity="0.098"/>
            <path id="Path_204" data-name="Path 204" d="M112.377,137.38v.23c-.185,9.526-17.423,9.526-17.607,0v-.23c0-4.4,3.928-7.5,7.545-9.458h-.822a.73.73,0,1,1,0-1.461h1.391a11.649,11.649,0,0,1-3.769-2.841h8.957a11.649,11.649,0,0,1-3.769,2.841h1.391a.73.73,0,1,1,0,1.461h-.818C108.492,129.882,112.377,132.976,112.377,137.38Z" transform="translate(-94.419 -122.387)" fill="#3db3e8" opacity="0.118"/>
            <path id="Path_205" data-name="Path 205" d="M113.15,137.01v.23c-.185,9.526-17.415,9.526-17.6,0v-.23c0-4.4,3.928-7.5,7.545-9.458h-.822a.73.73,0,0,1,0-1.461h1.391a11.649,11.649,0,0,1-3.769-2.841h8.957a11.649,11.649,0,0,1-3.769,2.841h1.388a.73.73,0,1,1,0,1.461h-.815C109.272,129.512,113.15,132.606,113.15,137.01Z" transform="translate(-95.142 -122.044)" fill="#3cb0e4" opacity="0.137"/>
            <path id="Path_206" data-name="Path 206" d="M113.9,136.6v.229c-.183,9.526-17.411,9.526-17.6,0V136.6c0-4.4,3.928-7.5,7.545-9.459h-.82a.73.73,0,1,1,0-1.46h1.391a11.658,11.658,0,0,1-3.769-2.841H109.6a11.65,11.65,0,0,1-3.769,2.841h1.391a.73.73,0,1,1,0,1.46h-.818C110.025,129.1,113.9,132.2,113.9,136.6Z" transform="translate(-95.837 -121.664)" fill="#3cade0" opacity="0.157"/>
            <path id="Path_207" data-name="Path 207" d="M114.706,136.26v.23c-.185,9.526-17.4,9.526-17.586,0v-.23c0-4.4,3.928-7.5,7.545-9.458h-.822a.73.73,0,1,1,0-1.461h1.391a11.649,11.649,0,0,1-3.769-2.841h8.957a11.649,11.649,0,0,1-3.769,2.841h1.391a.73.73,0,1,1,0,1.461h-.818C110.842,128.762,114.706,131.856,114.706,136.26Z" transform="translate(-96.596 -121.349)" fill="#3baadc" opacity="0.176"/>
            <path id="Path_208" data-name="Path 208" d="M115.442,135.89v.23c-.185,9.526-17.394,9.526-17.582,0v-.23c0-4.4,3.928-7.5,7.545-9.458h-.82a.73.73,0,1,1,0-1.461h1.391a11.649,11.649,0,0,1-3.766-2.841h8.954a11.649,11.649,0,0,1-3.769,2.841h1.391a.73.73,0,1,1,0,1.461h-.818C111.585,128.392,115.442,131.486,115.442,135.89Z" transform="translate(-97.282 -121.007)" fill="#3ba7d8" opacity="0.196"/>
            <path id="Path_209" data-name="Path 209" d="M116.261,135.52v.23c-.185,9.526-17.387,9.526-17.571,0v-.23c0-4.4,3.928-7.5,7.545-9.458h-.822a.73.73,0,0,1,0-1.461H106.8a11.65,11.65,0,0,1-3.769-2.841h8.956a11.65,11.65,0,0,1-3.769,2.841h1.391a.73.73,0,0,1,0,1.461H108.8C112.412,128.022,116.261,131.116,116.261,135.52Z" transform="translate(-98.051 -120.664)" fill="#3aa5d4" opacity="0.216"/>
            <path id="Path_210" data-name="Path 210" d="M117.007,135.141v.229c-.187,9.523-17.379,9.523-17.567,0v-.229c0-4.4,3.928-7.5,7.545-9.459h-.82a.73.73,0,1,1,0-1.46h1.391a11.641,11.641,0,0,1-3.769-2.842h8.957a11.642,11.642,0,0,1-3.769,2.841h1.394a.73.73,0,1,1,0,1.46h-.821C113.164,127.642,117.007,130.736,117.007,135.141Z" transform="translate(-98.746 -120.312)" fill="#3aa2d0" opacity="0.235"/>
            <path id="Path_211" data-name="Path 211" d="M117.817,134.761v.23c-.185,9.526-17.372,9.526-17.557,0v-.23c0-4.4,3.928-7.5,7.545-9.458h-.822a.73.73,0,0,1,0-1.461h1.391A11.649,11.649,0,0,1,104.6,121h8.957a11.65,11.65,0,0,1-3.769,2.841h1.391a.73.73,0,0,1,0,1.461h-.818C113.982,127.262,117.817,130.357,117.817,134.761Z" transform="translate(-99.505 -119.96)" fill="#399fcc" opacity="0.255"/>
            <path id="Path_212" data-name="Path 212" d="M118.59,134.4v.23c-.185,9.526-17.365,9.526-17.55,0v-.23c0-4.4,3.928-7.5,7.545-9.458h-.822a.73.73,0,0,1,0-1.461h1.391a11.649,11.649,0,0,1-3.769-2.841h8.957a11.65,11.65,0,0,1-3.769,2.841h1.391a.73.73,0,0,1,0,1.461h-.818C114.762,126.9,118.59,130,118.59,134.4Z" transform="translate(-100.228 -119.626)" fill="#399cc8" opacity="0.275"/>
            <path id="Path_213" data-name="Path 213" d="M119.363,134.03v.23c-.185,9.526-17.361,9.526-17.543,0v-.23c0-4.4,3.928-7.5,7.546-9.458h-.823a.73.73,0,0,1,0-1.461h1.391a11.649,11.649,0,0,1-3.769-2.841h8.957a11.649,11.649,0,0,1-3.769,2.841h1.391a.73.73,0,0,1,0,1.461h-.818C115.542,126.532,119.363,129.626,119.363,134.03Z" transform="translate(-100.95 -119.284)" fill="#3899c4" opacity="0.294"/>
            <path id="Path_214" data-name="Path 214" d="M120.165,133.7v.229c-.185,9.526-17.351,9.526-17.535,0V133.7c0-4.4,3.928-7.5,7.545-9.458h-.824a.731.731,0,0,1,0-1.462h1.391a11.639,11.639,0,0,1-3.769-2.841h8.957a11.639,11.639,0,0,1-3.769,2.841h1.391a.731.731,0,0,1,0,1.462h-.817C116.351,126.2,120.165,129.292,120.165,133.7Z" transform="translate(-101.701 -118.978)" fill="#3896c1" opacity="0.314"/>
            <path id="Path_215" data-name="Path 215" d="M120.919,133.28v.23c-.185,9.526-17.344,9.526-17.529,0v-.23c0-4.4,3.928-7.5,7.545-9.458h-.822a.73.73,0,0,1,0-1.461H111.5a11.649,11.649,0,0,1-3.769-2.841h8.957a11.649,11.649,0,0,1-3.767,2.841h1.391a.73.73,0,0,1,0,1.461h-.82C117.113,125.782,120.919,128.876,120.919,133.28Z" transform="translate(-102.405 -118.589)" fill="#3793bd" opacity="0.333"/>
            <path id="Path_216" data-name="Path 216" d="M121.7,132.91v.23c-.185,9.526-17.336,9.526-17.521,0v-.23c0-4.4,3.928-7.5,7.545-9.458H110.9a.73.73,0,0,1,0-1.461h1.391a11.649,11.649,0,0,1-3.769-2.841h8.957a11.649,11.649,0,0,1-3.769,2.841H115.1a.73.73,0,1,1,0,1.461h-.818C117.9,125.412,121.7,128.506,121.7,132.91Z" transform="translate(-103.137 -118.246)" fill="#3790b9" opacity="0.353"/>
            <path id="Path_217" data-name="Path 217" d="M122.434,132.54v.23c-.185,9.526-17.329,9.526-17.514,0v-.23c0-4.4,3.928-7.5,7.545-9.458h-.819a.73.73,0,1,1,0-1.461h1.391a11.65,11.65,0,0,1-3.771-2.841h8.959a11.649,11.649,0,0,1-3.769,2.841h1.391a.73.73,0,1,1,0,1.461h-.818C118.645,125.042,122.434,128.139,122.434,132.54Z" transform="translate(-103.822 -117.903)" fill="#368eb5" opacity="0.373"/>
            <path id="Path_218" data-name="Path 218" d="M123.238,132.161v.229c-.185,9.526-17.322,9.526-17.508,0v-.229c0-4.4,3.928-7.5,7.545-9.459h-.821a.73.73,0,1,1,0-1.461h1.391a11.639,11.639,0,0,1-3.769-2.841h8.957a11.639,11.639,0,0,1-3.769,2.84h1.391a.73.73,0,0,1,0,1.461h-.818C119.454,124.662,123.238,127.756,123.238,132.161Z" transform="translate(-104.573 -117.551)" fill="#368bb1" opacity="0.392"/>
            <path id="Path_219" data-name="Path 219" d="M124.029,131.762v.23c-.185,9.526-17.315,9.526-17.5,0v-.23c0-4.4,3.928-7.5,7.545-9.458h-.822a.73.73,0,1,1,0-1.461h1.391A11.649,11.649,0,0,1,110.875,118h8.957a11.65,11.65,0,0,1-3.769,2.841h1.39a.73.73,0,0,1,0,1.461h-.817C120.253,124.264,124.029,127.358,124.029,131.762Z" transform="translate(-105.314 -117.181)" fill="#3588ad" opacity="0.412"/>
            <path id="Path_220" data-name="Path 220" d="M124.8,131.42v.23c-.185,9.526-17.308,9.526-17.493,0v-.23c0-4.4,3.928-7.5,7.545-9.458h-.822a.73.73,0,1,1,0-1.461h1.39a11.646,11.646,0,0,1-3.769-2.841h8.956a11.634,11.634,0,0,1-3.769,2.841h1.391a.73.73,0,0,1,0,1.461h-.818C121.033,123.922,124.8,127.016,124.8,131.42Z" transform="translate(-106.037 -116.866)" fill="#3585a9" opacity="0.431"/>
            <path id="Path_221" data-name="Path 221" d="M125.557,131.05v.23c-.187,9.529-17.3,9.529-17.487,0v-.23c0-4.4,3.928-7.5,7.545-9.458h-.82a.73.73,0,1,1,0-1.461h1.391a11.65,11.65,0,0,1-3.769-2.841h8.957a11.65,11.65,0,0,1-3.769,2.841H119a.73.73,0,1,1,0,1.461h-.818C121.795,123.552,125.557,126.646,125.557,131.05Z" transform="translate(-106.741 -116.523)" fill="#3482a5" opacity="0.451"/>
            <path id="Path_222" data-name="Path 222" d="M126.358,130.71v.23c-.185,9.526-17.293,9.526-17.478,0v-.23c0-4.4,3.928-7.5,7.545-9.458H115.6a.73.73,0,0,1,0-1.461h1.391a11.649,11.649,0,0,1-3.769-2.841h8.957a11.649,11.649,0,0,1-3.769,2.841H119.8a.73.73,0,0,1,0,1.461h-.818C122.6,123.207,126.358,126.3,126.358,130.71Z" transform="translate(-107.491 -116.208)" fill="#347fa1" opacity="0.471"/>
            <path id="Path_223" data-name="Path 223" d="M127.141,130.3v.23c-.185,9.526-17.287,9.526-17.471,0v-.23c0-4.4,3.928-7.5,7.545-9.458h-.822a.73.73,0,1,1,0-1.461h1.393a11.649,11.649,0,0,1-3.769-2.841h8.955a11.649,11.649,0,0,1-3.769,2.841h1.391a.73.73,0,1,1,0,1.461h-.821C123.392,122.8,127.141,125.9,127.141,130.3Z" transform="translate(-108.223 -115.828)" fill="#337c9d" opacity="0.49"/>
            <path id="Path_224" data-name="Path 224" d="M127.913,129.93v.23c-.185,9.526-17.279,9.526-17.463,0v-.23c0-4.4,3.928-7.5,7.545-9.458h-.822a.73.73,0,1,1,0-1.461h1.391a11.649,11.649,0,0,1-3.769-2.841h8.957a11.65,11.65,0,0,1-3.772,2.841h1.391a.73.73,0,1,1,0,1.461h-.816C124.173,122.432,127.913,125.526,127.913,129.93Z" transform="translate(-108.946 -115.485)" fill="#337a9a" opacity="0.51"/>
            <path id="Path_225" data-name="Path 225" d="M128.668,129.56v.23c-.186,9.526-17.273,9.526-17.458,0v-.23c0-4.4,3.928-7.5,7.545-9.458h-.82a.73.73,0,1,1,0-1.461h1.391a11.65,11.65,0,0,1-3.769-2.843h8.957a11.649,11.649,0,0,1-3.769,2.841h1.391a.73.73,0,1,1,0,1.461h-.818C124.935,122.062,128.668,125.157,128.668,129.56Z" transform="translate(-109.65 -115.142)" fill="#327796" opacity="0.529"/>
            <path id="Path_226" data-name="Path 226" d="M129.469,129.18v.23c-.185,9.526-17.265,9.526-17.449,0v-.23c0-4.4,3.928-7.5,7.545-9.458h-.822a.73.73,0,0,1,0-1.461h1.391a11.649,11.649,0,0,1-3.769-2.841h8.957a11.649,11.649,0,0,1-3.769,2.838h1.391a.73.73,0,0,1,0,1.461h-.818C125.742,121.682,129.469,124.776,129.469,129.18Z" transform="translate(-110.4 -114.79)" fill="#327492" opacity="0.549"/>
            <path id="Path_227" data-name="Path 227" d="M130.242,128.81v.23c-.185,9.526-17.256,9.526-17.442,0v-.23c0-4.4,3.928-7.5,7.545-9.458h-.821a.73.73,0,0,1,0-1.461h1.39a11.647,11.647,0,0,1-3.769-2.841H126.1a11.645,11.645,0,0,1-3.77,2.841h1.391a.73.73,0,0,1,0,1.461h-.818C126.522,121.312,130.242,124.406,130.242,128.81Z" transform="translate(-111.123 -114.448)" fill="#31718e" opacity="0.569"/>
            <path id="Path_228" data-name="Path 228" d="M131.025,128.44v.23c-.185,9.526-17.25,9.526-17.435,0v-.23c0-4.4,3.928-7.5,7.545-9.458h-.821a.73.73,0,0,1,0-1.461h1.391a11.65,11.65,0,0,1-3.769-2.841h8.956a11.65,11.65,0,0,1-3.769,2.841h1.391a.73.73,0,0,1,0,1.461H123.7C127.312,120.942,131.025,124.036,131.025,128.44Z" transform="translate(-111.855 -114.105)" fill="#316e8a" opacity="0.588"/>
            <path id="Path_229" data-name="Path 229" d="M131.8,128.07v.23c-.185,9.526-17.243,9.526-17.427,0v-.23c0-4.4,3.928-7.5,7.545-9.458h-.822a.73.73,0,1,1,0-1.461h1.391a11.649,11.649,0,0,1-3.769-2.841h8.957a11.65,11.65,0,0,1-3.766,2.841H125.3a.73.73,0,1,1,0,1.461h-.822C128.092,120.572,131.8,123.666,131.8,128.07Z" transform="translate(-112.577 -113.762)" fill="#306b86" opacity="0.608"/>
            <path id="Path_230" data-name="Path 230" d="M132.62,127.71v.23c-.185,9.526-17.235,9.526-17.42,0v-.23c0-4.4,3.928-7.5,7.545-9.458h-.825a.73.73,0,1,1,0-1.461h1.391a11.649,11.649,0,0,1-3.769-2.841H128.5a11.649,11.649,0,0,1-3.769,2.841h1.391a.73.73,0,0,1,0,1.461H125.3C128.92,120.21,132.62,123.3,132.62,127.71Z" transform="translate(-113.346 -113.428)" fill="#306882" opacity="0.627"/>
            <path id="Path_231" data-name="Path 231" d="M133.353,127.32v.23c-.185,9.526-17.229,9.526-17.413,0v-.23c0-4.4,3.928-7.5,7.545-9.458h-.822a.73.73,0,0,1,0-1.461h1.391a11.649,11.649,0,0,1-3.769-2.841h8.957a11.649,11.649,0,0,1-3.769,2.841h1.391a.73.73,0,0,1,0,1.461h-.818C129.662,119.822,133.353,122.916,133.353,127.32Z" transform="translate(-114.032 -113.067)" fill="#2f667e" opacity="0.647"/>
            <path id="Path_232" data-name="Path 232" d="M134.135,126.95v.23c-.185,9.526-17.22,9.526-17.405,0v-.23c0-4.4,3.928-7.5,7.545-9.458h-.822a.73.73,0,1,1,0-1.461h1.389a11.649,11.649,0,0,1-3.769-2.841h8.959a11.649,11.649,0,0,1-3.769,2.841h1.391a.73.73,0,0,1,0,1.461h-.818C130.452,119.452,134.135,122.546,134.135,126.95Z" transform="translate(-114.764 -112.724)" fill="#2f637a" opacity="0.667"/>
            <path id="Path_233" data-name="Path 233" d="M134.888,126.58v.23c-.185,9.526-17.214,9.526-17.4,0v-.23c0-4.4,3.925-7.5,7.541-9.458h-.817a.73.73,0,0,1,0-1.461h1.391a11.649,11.649,0,0,1-3.769-2.841h8.957a11.649,11.649,0,0,1-3.769,2.841h1.391a.73.73,0,1,1,0,1.461H127.6C131.214,119.082,134.888,122.176,134.888,126.58Z" transform="translate(-115.468 -112.382)" fill="#2e6076" opacity="0.686"/>
            <path id="Path_234" data-name="Path 234" d="M135.691,126.2v.23c-.185,9.526-17.206,9.526-17.391,0v-.23c0-4.4,3.928-7.5,7.545-9.458h-.822a.73.73,0,0,1,0-1.461h1.391a11.649,11.649,0,0,1-3.769-2.841H131.6a11.65,11.65,0,0,1-3.769,2.841h1.391a.73.73,0,0,1,0,1.461h-.818C132.022,118.7,135.691,121.8,135.691,126.2Z" transform="translate(-116.218 -112.03)" fill="#2e5d73" opacity="0.706"/>
            <path id="Path_235" data-name="Path 235" d="M136.464,125.83v.23c-.185,9.526-17.2,9.526-17.384,0v-.23c0-4.4,3.928-7.5,7.545-9.458H125.8a.73.73,0,0,1,0-1.461h1.391a11.649,11.649,0,0,1-3.769-2.841h8.957a11.65,11.65,0,0,1-3.769,2.841H130a.73.73,0,1,1,0,1.461h-.818C132.8,118.332,136.464,121.426,136.464,125.83Z" transform="translate(-116.941 -111.687)" fill="#2d5a6f" opacity="0.725"/>
            <path id="Path_236" data-name="Path 236" d="M137.237,125.46v.23c-.185,9.526-17.192,9.526-17.377,0v-.23c0-4.4,3.928-7.5,7.545-9.458h-.822a.73.73,0,0,1,0-1.461h1.391A11.649,11.649,0,0,1,124.2,111.7h8.957a11.65,11.65,0,0,1-3.769,2.841h1.391a.73.73,0,1,1,0,1.461h-.818C133.582,117.962,137.237,121.056,137.237,125.46Z" transform="translate(-117.663 -111.344)" fill="#2d576b" opacity="0.745"/>
            <path id="Path_237" data-name="Path 237" d="M137.991,125.136v.23c-.187,9.526-17.187,9.526-17.371,0v-.23c0-4.4,3.928-7.5,7.545-9.458h-.823a.73.73,0,1,1,0-1.457h1.4a11.649,11.649,0,0,1-3.769-2.841h8.953a11.65,11.65,0,0,1-3.769,2.841h1.391a.73.73,0,0,1,0,1.461h-.82C134.345,117.638,137.991,120.732,137.991,125.136Z" transform="translate(-118.367 -111.048)" fill="#2c5467" opacity="0.765"/>
            <path id="Path_238" data-name="Path 238" d="M138.811,124.756v.23c-.185,9.526-17.178,9.526-17.361,0v-.23c0-4.4,3.928-7.5,7.545-9.458h-.824a.73.73,0,1,1,0-1.461h1.391A11.649,11.649,0,0,1,125.793,111h8.957a11.649,11.649,0,0,1-3.77,2.837h1.391a.73.73,0,1,1,0,1.461h-.817C135.173,117.258,138.811,120.352,138.811,124.756Z" transform="translate(-119.136 -110.695)" fill="#2c5163" opacity="0.784"/>
            <path id="Path_239" data-name="Path 239" d="M139.575,124.34v.23c-.185,9.526-17.17,9.526-17.355,0v-.23c0-4.4,3.928-7.5,7.545-9.458h-.822a.73.73,0,0,1,0-1.461h1.391a11.649,11.649,0,0,1-3.769-2.841h8.954a11.649,11.649,0,0,1-3.766,2.841h1.391a.73.73,0,0,1,0,1.461h-.818C135.943,116.842,139.575,119.936,139.575,124.34Z" transform="translate(-119.85 -110.306)" fill="#2b4f5f" opacity="0.804"/>
            <path id="Path_240" data-name="Path 240" d="M140.348,123.97v.23c-.185,9.526-17.163,9.526-17.348,0v-.23c0-4.4,3.928-7.5,7.545-9.458h-.822a.73.73,0,0,1,0-1.461h1.391a11.649,11.649,0,0,1-3.769-2.841H136.3a11.649,11.649,0,0,1-3.769,2.841h1.391a.73.73,0,1,1,0,1.461h-.818C136.723,116.472,140.348,119.566,140.348,123.97Z" transform="translate(-120.572 -109.964)" fill="#2b4c5b" opacity="0.824"/>
            <path id="Path_241" data-name="Path 241" d="M141.093,123.6v.23c-.185,9.526-17.158,9.526-17.343,0v-.23c0-4.4,3.926-7.495,7.544-9.457h-.818a.73.73,0,1,1,0-1.461h1.391a11.65,11.65,0,0,1-3.769-2.841h8.957a11.649,11.649,0,0,1-3.769,2.841h1.391a.73.73,0,1,1,0,1.461h-.818C137.475,116.1,141.093,119.194,141.093,123.6Z" transform="translate(-121.267 -109.621)" fill="#2a4957" opacity="0.843"/>
            <path id="Path_242" data-name="Path 242" d="M141.9,123.22v.23c-.185,9.526-17.149,9.526-17.334,0v-.23c0-4.4,3.928-7.5,7.545-9.458H131.3a.73.73,0,1,1,0-1.461h1.391a11.649,11.649,0,0,1-3.769-2.841h8.954A11.649,11.649,0,0,1,134.1,112.3h1.391a.73.73,0,0,1,0,1.461h-.818C138.293,115.722,141.9,118.816,141.9,123.22Z" transform="translate(-122.027 -109.269)" fill="#2a4653" opacity="0.863"/>
            <path id="Path_243" data-name="Path 243" d="M142.676,122.85v.23c-.185,9.526-17.14,9.526-17.326,0v-.23c0-4.4,3.928-7.5,7.545-9.458h-.822a.73.73,0,1,1,0-1.461h1.391a11.649,11.649,0,0,1-3.769-2.841h8.957a11.65,11.65,0,0,1-3.769,2.841h1.391a.73.73,0,1,1,0,1.461h-.818C139.073,115.352,142.676,118.446,142.676,122.85Z" transform="translate(-122.75 -108.926)" fill="#29434f" opacity="0.882"/>
            <path id="Path_244" data-name="Path 244" d="M143.459,122.48v.23c-.185,9.526-17.134,9.526-17.319,0v-.23c0-4.4,3.928-7.5,7.545-9.458h-.822a.73.73,0,1,1,0-1.461h1.391a11.649,11.649,0,0,1-3.769-2.841h8.96a11.65,11.65,0,0,1-3.769,2.841h1.391a.73.73,0,1,1,0,1.461h-.821C139.863,114.982,143.459,118.076,143.459,122.48Z" transform="translate(-123.481 -108.583)" fill="#29404c" opacity="0.902"/>
            <path id="Path_245" data-name="Path 245" d="M144.2,122.11v.23c-.187,9.525-17.129,9.525-17.314,0v-.23c0-4.4,3.928-7.5,7.545-9.458h-.82a.73.73,0,1,1,0-1.461h1.391a11.649,11.649,0,0,1-3.768-2.841h8.956a11.65,11.65,0,0,1-3.769,2.843h1.391a.73.73,0,1,1,0,1.461H137C140.615,114.612,144.2,117.706,144.2,122.11Z" transform="translate(-124.176 -108.24)" fill="#283d48" opacity="0.922"/>
            <path id="Path_246" data-name="Path 246" d="M145.014,121.756v.23c-.185,9.526-17.12,9.526-17.3,0v-.23c0-4.4,3.928-7.5,7.545-9.458h-.822a.73.73,0,1,1,0-1.461h1.39A11.65,11.65,0,0,1,132.055,108h8.957a11.649,11.649,0,0,1-3.769,2.841h1.391a.73.73,0,1,1,0,1.461h-.818C141.432,114.26,145.014,117.354,145.014,121.756Z" transform="translate(-124.936 -107.916)" fill="#283b44" opacity="0.941"/>
            <path id="Path_247" data-name="Path 247" d="M145.788,121.36v.23c-.185,9.526-17.113,9.526-17.3,0v-.23c0-4.4,3.928-7.5,7.545-9.458h-.822a.73.73,0,0,1,0-1.461H136.6a11.65,11.65,0,0,1-3.769-2.841h8.957a11.649,11.649,0,0,1-3.769,2.841h1.393a.73.73,0,1,1,0,1.461H138.6C142.21,113.862,145.788,116.956,145.788,121.36Z" transform="translate(-125.659 -107.546)" fill="#273840" opacity="0.961"/>
            <path id="Path_248" data-name="Path 248" d="M146.6,120.99v.23c-.185,9.526-17.1,9.526-17.287,0v-.23c0-4.4,3.928-7.5,7.545-9.458h-.825a.73.73,0,1,1,0-1.461h1.391a11.649,11.649,0,0,1-3.769-2.841h8.957a11.65,11.65,0,0,1-3.769,2.841h1.391a.73.73,0,1,1,0,1.461h-.818C143.03,113.492,146.6,116.586,146.6,120.99Z" transform="translate(-126.418 -107.203)" fill="#27353c" opacity="0.98"/>
            <path id="Path_249" data-name="Path 249" d="M147.287,120.62v.23c-.187,9.526-17.1,9.526-17.287,0v-.23c0-4.4,3.928-7.495,7.545-9.456h-.818a.73.73,0,1,1,0-1.461h1.391a11.65,11.65,0,0,1-3.769-2.841h8.957a11.649,11.649,0,0,1-3.769,2.841h1.391a.73.73,0,1,1,0,1.461h-.818C143.727,113.123,147.287,116.213,147.287,120.62Z" transform="translate(-127.057 -106.86)" fill="#263238"/>
          </g>
          <path id="Path_250" data-name="Path 250" d="M144.742,165.34c3.617,1.961,7.178,5.051,7.178,9.458v.23c-.187,9.526-16.733,9.526-16.92,0v-.23c0-4.4,3.56-7.495,7.178-9.456Z" transform="translate(-131.69 -161.038)" fill="#ffb74d"/>
          <path id="Path_251" data-name="Path 251" d="M194.15,109.774a11.628,11.628,0,0,0,3.928-2.914H189.12a11.628,11.628,0,0,0,3.928,2.914Z" transform="translate(-181.828 -106.86)" fill="#ffb74d"/>
          <path id="Path_252" data-name="Path 252" d="M191.834,106.86a8.933,8.933,0,0,0,1.555,2.914h-.332a11.618,11.618,0,0,1-3.927-2.914Z" transform="translate(-181.838 -106.86)" fill="#ffa726"/>
          <path id="Path_253" data-name="Path 253" d="M216.451,145.48h-4.2a.73.73,0,0,0-.73.73h0a.73.73,0,0,0,.73.73h4.2a.73.73,0,0,0,.73-.73h0a.73.73,0,0,0-.73-.73Z" transform="translate(-202.581 -142.639)" fill="#37474f"/>
          <path id="Path_254" data-name="Path 254" d="M218.816,231.4h-3.485a.423.423,0,1,0,0,.845H217v1.03a.423.423,0,0,0,.845,0v-1.026h.969a1.126,1.126,0,0,0,1.126-1.126v-1.133a1.127,1.127,0,0,0-1.126-1.126h-2.782a.281.281,0,0,1-.281-.28v-1.137a.281.281,0,0,1,.281-.281h3.485a.423.423,0,0,0,0-.845h-1.672v-1.03a.423.423,0,0,0-.845,0v1.03h-.968a1.128,1.128,0,0,0-1.126,1.126v1.134a1.127,1.127,0,0,0,1.126,1.126h2.782a.282.282,0,0,1,.281.281v1.133A.282.282,0,0,1,218.816,231.4Z" transform="translate(-205.703 -216.207)" fill="#eceff1"/>
          <path id="Path_255" data-name="Path 255" d="M143.525,182.171h-.171c-4.275-.062-8.128-2.406-8.283-7.033V174.8c-.005-4.407,3.555-7.5,7.172-9.458h.505c-2.193,1.96-3.678,5.789-3.678,10.193v.23C139.124,180.526,141.324,182.171,143.525,182.171Z" transform="translate(-131.754 -161.038)" fill="#ffa726"/>
        </g>
      </g>
    </g>
  </g>
</svg>
