<svg xmlns="http://www.w3.org/2000/svg" xmlns:xlink="http://www.w3.org/1999/xlink" width="555.206" height="346.618" viewBox="0 0 555.206 346.618">
  <defs>
    <clipPath id="clip-path">
      <rect id="content_background" data-name="content background" width="555.206" height="346.618" fill="#fff"/>
    </clipPath>
  </defs>
  <g id="empty_account_icon" data-name="empty account icon" opacity="0.08" clip-path="url(#clip-path)">
    <g id="piggy-bank" transform="translate(104.474 0)">
      <g id="Group_211" data-name="Group 211" transform="translate(84.127 180.531)">
        <path id="Path_261" data-name="Path 261" d="M817.5,474.007v7.221a6.823,6.823,0,0,1-7.221,7.221h-26v10.831h29.607a14.485,14.485,0,0,0,14.442-14.442V474.007a5.7,5.7,0,0,0-5.777-5.777h0C819.668,468.229,817.5,470.4,817.5,474.007Z" transform="translate(-566.203 -468.23)" fill="#f1543f"/>
        <path id="Path_262" data-name="Path 262" d="M277.155,800.5a29.01,29.01,0,0,1-28.885,26h-.722a28.97,28.97,0,0,1-28.885-28.885V781.005C235.994,790.393,256.214,796.892,277.155,800.5Z" transform="translate(-218.663 -660.412)" fill="#f1543f"/>
      </g>
      <path id="Path_263" data-name="Path 263" d="M125.312,264.514c18.053-10.11,37.55-16.609,55.6-18.775L141.2,206.023a60.092,60.092,0,0,0-18.053,43.327C123.867,253.682,124.59,259.459,125.312,264.514Z" transform="translate(-75.846 -126.589)" fill="#40596b"/>
      <g id="Group_212" data-name="Group 212" transform="translate(0 173.951)">
        <path id="Path_264" data-name="Path 264" d="M8.051,453.411c-10.11,10.11-10.11,49.1,0,59.214,5.055,5.055,28.885,0,28.885,0V453.411C36.213,453.411,13.105,448.357,8.051,453.411Z" transform="translate(-0.468 -451.165)" fill="#f1543f"/>
        <path id="Path_265" data-name="Path 265" d="M578.694,781.005v16.609A28.97,28.97,0,0,1,549.809,826.5h-.722a29.01,29.01,0,0,1-28.885-26Q552.7,795.087,578.694,781.005Z" transform="translate(-319.814 -653.832)" fill="#f1543f"/>
      </g>
      <ellipse id="Ellipse_20" data-name="Ellipse 20" cx="151.646" cy="116.983" rx="151.646" ry="116.983" transform="translate(19.858 88.821)" fill="#ff7058"/>
      <circle id="Ellipse_21" data-name="Ellipse 21" cx="8.666" cy="8.666" r="8.666" transform="translate(57.408 164.644)" fill="#40596b"/>
      <path id="Path_266" data-name="Path 266" d="M408.938,307.158h-94.6a5.7,5.7,0,0,0-5.777,5.777h0a5.7,5.7,0,0,0,5.777,5.777h94.6c2.889,0,5.055-2.167,5.055-5.777h0C413.993,310.047,411.826,307.158,408.938,307.158Z" transform="translate(-189.774 -188.73)" fill="#f1543f"/>
      <circle id="Ellipse_22" data-name="Ellipse 22" cx="62.102" cy="62.102" r="62.102" transform="translate(109.401 0)" fill="#ffd15c"/>
      <circle id="Ellipse_23" data-name="Ellipse 23" cx="46.938" cy="46.938" r="46.938" transform="translate(124.566 15.165)" fill="#f8b64c"/>
      <path id="Path_267" data-name="Path 267" d="M402.389,115.4c-1.444-1.444-2.167-3.61-2.889-6.5l-12.276,1.444c.722,5.777,2.889,10.831,6.5,13.72,3.61,3.61,7.943,5.055,13,5.777v5.777h6.5v-6.5c5.777-.722,10.831-2.889,13.72-7.221,3.61-3.61,5.055-8.666,5.055-13.72s-1.444-9.388-4.332-12.276-7.943-5.777-15.165-7.943V71.353a9.926,9.926,0,0,1,5.777,7.221l11.554-1.444A19.87,19.87,0,0,0,424.052,66.3c-2.889-2.889-6.5-4.332-11.554-5.055V56.189H406v4.332c-5.055.722-9.388,2.167-13,5.777-2.889,3.61-5.055,7.943-5.055,13a20.163,20.163,0,0,0,4.332,13c2.889,3.61,7.221,5.777,13,7.943v19.5A11.108,11.108,0,0,1,402.389,115.4Zm10.832-13c2.889.722,5.055,2.167,5.777,3.61s2.167,3.61,2.167,5.055A8.2,8.2,0,0,1,419,116.846c-1.444,1.444-3.61,2.889-5.777,2.889ZM402.389,83.629a10.266,10.266,0,0,1-1.444-4.332,13.387,13.387,0,0,1,1.444-5.055c.722-1.444,2.167-2.167,4.332-2.889V87.24A7.4,7.4,0,0,1,402.389,83.629Z" transform="translate(-238.107 -34.525)" fill="#ffd15c"/>
    </g>
  </g>
</svg>
