<svg id="Layer_1" data-name="Layer 1" xmlns="http://www.w3.org/2000/svg" xmlns:xlink="http://www.w3.org/1999/xlink" viewBox="0 0 131.76 131.76"><defs><clipPath id="clip-path" transform="translate(1.51 4.27)"><circle cx="63.99" cy="63.99" r="63.5" fill="none"/></clipPath></defs><title>logo</title><g id="logo-2"><g id="logo_shadow-2" data-name="logo shadow-2"><circle cx="65.5" cy="68.26" r="63.5" fill="#fff"/><circle cx="65.5" cy="68.26" r="63" fill="none" stroke="#707070"/></g><g clip-path="url(#clip-path)"><g id="Mask_Group_1" data-name="Mask Group 1"><g id="yellow_money_bag" data-name="yellow money bag"><g id="BACKGROUND"><rect id="Rectangle_530" data-name="Rectangle 530" width="131.76" height="131.76" fill="#cfd8dc"/></g><g id="OBJECTS"><g id="Group_2" data-name="Group 2" opacity="0.2"><path id="Path_198" data-name="Path 198" d="M85.45,78.19V79c-.67,34.13-62.57,34.13-63.24,0v-.82c0-15.78,14.07-26.85,27-33.87H46.31a2.62,2.62,0,0,1,0-5.24h5A41.59,41.59,0,0,1,37.79,28.9H69.88a41.69,41.69,0,0,1-13.5,10.17h5a2.62,2.62,0,0,1,0,5.24H58.43C71.38,51.34,85.45,62.4,85.45,78.19Z" transform="translate(1.51 4.27)" fill="#40c4ff" fill-opacity="0"/><path id="Path_199" data-name="Path 199" d="M85.63,78.09v.82C85,113,23.09,113,22.43,78.91v-.82c0-15.78,14.07-26.86,27-33.88H46.52A2.62,2.62,0,0,1,46.41,39H51.5A41.59,41.59,0,0,1,38,28.8H70.08A41.48,41.48,0,0,1,56.58,39h5a2.62,2.62,0,0,1,0,5.24H58.64C71.59,51.23,85.63,62.31,85.63,78.09Z" transform="translate(1.51 4.27)" fill="#3fc1fb" opacity="0.02" style="isolation:isolate"/><path id="Path_200" data-name="Path 200" d="M85.81,78v.82c-.66,34.12-62.51,34.12-63.17,0V78c0-15.78,14.07-26.86,27-33.88h-3a2.62,2.62,0,0,1,0-5.23h5A41.76,41.76,0,0,1,38.2,28.7H70.29a41.76,41.76,0,0,1-13.5,10.18h5a2.62,2.62,0,1,1,.1,5.23h-3C71.79,51.13,85.81,62.21,85.81,78Z" transform="translate(1.51 4.27)" fill="#3fbef7" opacity="0.04" style="isolation:isolate"/><path id="Path_201" data-name="Path 201" d="M86,77.89v.83c-.66,34.12-62.49,34.12-63.15,0v-.83c0-15.77,14.07-26.86,27-33.88H46.92a2.62,2.62,0,0,1,0-5.23h5A41.76,41.76,0,0,1,38.41,28.6H70.49A41.76,41.76,0,0,1,57,38.78h5A2.62,2.62,0,1,1,62.08,44H59C72,51,86,62.12,86,77.89Z" transform="translate(1.51 4.27)" fill="#3ebbf3" opacity="0.06" style="isolation:isolate"/><path id="Path_202" data-name="Path 202" d="M86.18,77.8v.82c-.66,34.12-62.46,34.12-63.13,0V77.8c0-15.78,14.07-26.86,27-33.89H47.13a2.62,2.62,0,0,1,0-5.23h5A41.51,41.51,0,0,1,38.62,28.5H70.7A41.72,41.72,0,0,1,57.2,38.68h5a2.62,2.62,0,1,1,.1,5.24h-3C72.21,50.93,86.18,62,86.18,77.8Z" transform="translate(1.51 4.27)" fill="#3eb9ef" opacity="0.08" style="isolation:isolate"/><path id="Path_203" data-name="Path 203" d="M86.35,77.69v.82c-.66,34.12-62.43,34.12-63.1,0v-.82c0-15.78,14.07-26.86,27-33.89H47.34a2.62,2.62,0,1,1-.1-5.23h5.08A41.74,41.74,0,0,1,38.81,28.41h32.1a41.59,41.59,0,0,1-13.5,10.17h5a2.62,2.62,0,0,1,.1,5.24h-3C72.41,50.84,86.35,61.92,86.35,77.69Z" transform="translate(1.51 4.27)" fill="#3db6eb" opacity="0.1" style="isolation:isolate"/><path id="Path_204" data-name="Path 204" d="M86.54,77.6v.82c-.66,34.12-62.42,34.12-63.08,0V77.6c0-15.78,14.07-26.86,27-33.88H47.55a2.62,2.62,0,0,1,0-5.24h5A41.59,41.59,0,0,1,39,28.31H71.12a41.69,41.69,0,0,1-13.5,10.17h5a2.62,2.62,0,0,1,.11,5.24h-3C72.62,50.74,86.54,61.82,86.54,77.6Z" transform="translate(1.51 4.27)" fill="#3db3e8" opacity="0.12" style="isolation:isolate"/><path id="Path_205" data-name="Path 205" d="M86.72,77.5v.82c-.66,34.13-62.39,34.13-63,0V77.5c0-15.78,14.07-26.86,27-33.88H47.76a2.62,2.62,0,0,1,0-5.23h5a41.76,41.76,0,0,1-13.5-10.18H71.32a41.76,41.76,0,0,1-13.5,10.18h5a2.62,2.62,0,1,1,.1,5.23h-3C72.83,50.64,86.72,61.72,86.72,77.5Z" transform="translate(1.51 4.27)" fill="#3cb0e4" opacity="0.14" style="isolation:isolate"/><path id="Path_206" data-name="Path 206" d="M86.9,77.4v.82c-.66,34.13-62.37,34.13-63,0v-.82c0-15.78,14.07-26.86,27-33.88H48a2.62,2.62,0,1,1-.18-5.23h5.16A41.76,41.76,0,0,1,39.44,28.1H71.53A41.86,41.86,0,0,1,58,38.28h5a2.62,2.62,0,0,1,.18,5.23H60.08C73,50.54,86.9,61.62,86.9,77.4Z" transform="translate(1.51 4.27)" fill="#3cade0" opacity="0.16" style="isolation:isolate"/><path id="Path_207" data-name="Path 207" d="M87.08,77.3v.82c-.66,34.13-62.34,34.13-63,0V77.3c0-15.77,14.07-26.86,27-33.88h-3a2.62,2.62,0,0,1,0-5.23h5A41.65,41.65,0,0,1,39.65,28H71.73a41.76,41.76,0,0,1-13.5,10.18h5a2.62,2.62,0,0,1,0,5.23H60.28C73.24,50.44,87.08,61.53,87.08,77.3Z" transform="translate(1.51 4.27)" fill="#3baadc" opacity="0.18" style="isolation:isolate"/><path id="Path_208" data-name="Path 208" d="M87.26,77.21V78c-.66,34.12-62.31,34.12-63,0v-.82c0-15.78,14.07-26.86,27-33.89H48.37a2.62,2.62,0,1,1-.1-5.23h5.08A41.82,41.82,0,0,1,39.86,27.91H71.94a41.72,41.72,0,0,1-13.5,10.18h5a2.62,2.62,0,0,1,0,5.23H60.49C73.44,50.35,87.26,61.43,87.26,77.21Z" transform="translate(1.51 4.27)" fill="#3ba7d8" opacity="0.2" style="isolation:isolate"/><path id="Path_209" data-name="Path 209" d="M87.44,77.11v.82c-.66,34.12-62.28,34.12-62.94,0v-.82c0-15.78,14.07-26.86,27-33.88h-3a2.62,2.62,0,0,1,0-5.24h5a41.62,41.62,0,0,1-13.5-10.17H72.15A41.73,41.73,0,0,1,58.65,38h5a2.62,2.62,0,0,1,0,5.24H60.7C73.65,50.25,87.44,61.33,87.44,77.11Z" transform="translate(1.51 4.27)" fill="#3aa5d4" opacity="0.22" style="isolation:isolate"/><path id="Path_210" data-name="Path 210" d="M87.62,77v.82c-.67,34.11-62.25,34.11-62.93,0V77c0-15.78,14.07-26.86,27-33.88H48.79a2.62,2.62,0,1,1-.18-5.23h5.16a41.76,41.76,0,0,1-13.5-10.18H72.35a41.62,41.62,0,0,1-13.5,10.17h5A2.62,2.62,0,0,1,64,43.12a.54.54,0,0,1-.18,0H60.91C73.85,50.15,87.62,61.23,87.62,77Z" transform="translate(1.51 4.27)" fill="#3aa2d0" opacity="0.23" style="isolation:isolate"/><path id="Path_211" data-name="Path 211" d="M87.8,76.91v.82c-.66,34.13-62.23,34.13-62.89,0v-.82c0-15.78,14.07-26.86,27-33.88H49a2.62,2.62,0,0,1-.1-5.23H54a41.65,41.65,0,0,1-13.5-10.18H72.56a41.73,41.73,0,0,1-13.5,10.17h5a2.62,2.62,0,0,1,0,5.24H61.12C74.07,50.05,87.8,61.13,87.8,76.91Z" transform="translate(1.51 4.27)" fill="#399fcc" opacity="0.25" style="isolation:isolate"/><path id="Path_212" data-name="Path 212" d="M88,76.81v.82c-.66,34.13-62.2,34.13-62.87,0v-.82c0-15.77,14.07-26.86,27-33.88H49.2a2.62,2.62,0,0,1,0-5.23h5a41.76,41.76,0,0,1-13.5-10.18H72.77A41.86,41.86,0,0,1,59.27,37.7h5a2.62,2.62,0,1,1,.1,5.23h-3C74.28,50,88,61,88,76.81Z" transform="translate(1.51 4.27)" fill="#399cc8" opacity="0.28" style="isolation:isolate"/><path id="Path_213" data-name="Path 213" d="M88.16,76.72v.82c-.66,34.12-62.19,34.12-62.84,0v-.82c0-15.78,14.07-26.86,27-33.89h-3a2.62,2.62,0,1,1-.1-5.23h5.08a41.72,41.72,0,0,1-13.5-10.18H73A41.62,41.62,0,0,1,59.47,37.6h5a2.62,2.62,0,0,1,0,5.23H61.52C74.48,49.85,88.16,60.94,88.16,76.72Z" transform="translate(1.51 4.27)" fill="#3899c4" opacity="0.29" style="isolation:isolate"/><path id="Path_214" data-name="Path 214" d="M88.35,76.63v.82c-.66,34.12-62.15,34.12-62.82,0v-.82c0-15.78,14.07-26.86,27-33.88h-3a2.62,2.62,0,0,1,0-5.24h5A41.48,41.48,0,0,1,41.1,27.34H73.18a41.59,41.59,0,0,1-13.5,10.17h5a2.62,2.62,0,0,1,0,5.24H61.74C74.69,49.75,88.35,60.84,88.35,76.63Z" transform="translate(1.51 4.27)" fill="#3896c1" opacity="0.31" style="isolation:isolate"/><path id="Path_215" data-name="Path 215" d="M88.53,76.52v.82c-.67,34.12-62.13,34.12-62.8,0v-.82c0-15.78,14.07-26.86,27-33.88H49.82a2.62,2.62,0,0,1,0-5.24h5A41.73,41.73,0,0,1,41.3,27.23H73.39a41.9,41.9,0,0,1-13.5,10.18h5a2.62,2.62,0,0,1,0,5.23H61.93C74.89,49.66,88.53,60.74,88.53,76.52Z" transform="translate(1.51 4.27)" fill="#3793bd" opacity="0.33" style="isolation:isolate"/><path id="Path_216" data-name="Path 216" d="M88.71,76.42v.82c-.67,34.13-62.1,34.13-62.77,0v-.82c0-15.78,14.07-26.86,27-33.88H50a2.62,2.62,0,0,1,0-5.23h5a41.76,41.76,0,0,1-13.5-10.18H73.6A41.86,41.86,0,0,1,60.1,37.31h5a2.62,2.62,0,0,1,0,5.23H62.15C75.1,49.56,88.71,60.64,88.71,76.42Z" transform="translate(1.51 4.27)" fill="#3790b9" opacity="0.35" style="isolation:isolate"/><path id="Path_217" data-name="Path 217" d="M88.88,76.32v.82c-.66,34.13-62.08,34.13-62.74,0v-.82c0-15.77,14.07-26.86,27-33.88H50.23a2.62,2.62,0,0,1,0-5.23h5A41.8,41.8,0,0,1,41.71,27H73.8A41.76,41.76,0,0,1,60.3,37.21h5a2.62,2.62,0,0,1,0,5.23H62.35C75.31,49.46,88.88,60.55,88.88,76.32Z" transform="translate(1.51 4.27)" fill="#368eb5" opacity="0.37" style="isolation:isolate"/><path id="Path_218" data-name="Path 218" d="M89.07,76.23v.82c-.66,34.12-62,34.12-62.72,0v-.82c0-15.78,14.07-26.87,27-33.89H50.44a2.62,2.62,0,0,1,0-5.23h5a41.76,41.76,0,0,1-13.5-10.18H74A41.69,41.69,0,0,1,60.51,37.1h5a2.62,2.62,0,0,1,0,5.24H62.56C75.51,49.36,89.07,60.45,89.07,76.23Z" transform="translate(1.51 4.27)" fill="#368bb1" opacity="0.39" style="isolation:isolate"/><path id="Path_219" data-name="Path 219" d="M89.25,76.13V77c-.66,34.12-62,34.12-62.69,0v-.82c0-15.78,14.07-26.86,27-33.88H50.65a2.62,2.62,0,0,1,0-5.24h5a41.76,41.76,0,0,1-13.5-10.18H74.21A41.73,41.73,0,0,1,60.71,37h5a2.62,2.62,0,0,1,.1,5.24h-3C75.72,49.27,89.25,60.35,89.25,76.13Z" transform="translate(1.51 4.27)" fill="#3588ad" opacity="0.41" style="isolation:isolate"/><path id="Path_220" data-name="Path 220" d="M89.43,76v.82c-.66,34.12-62,34.12-62.66,0V76c0-15.78,14.07-26.86,27-33.88H50.86a2.62,2.62,0,1,1-.1-5.24h5.08a41.59,41.59,0,0,1-13.5-10.17H74.42a41.59,41.59,0,0,1-13.5,10.17h5a2.62,2.62,0,0,1,0,5.24H63C75.92,49.17,89.43,60.25,89.43,76Z" transform="translate(1.51 4.27)" fill="#3585a9" opacity="0.43" style="isolation:isolate"/><path id="Path_221" data-name="Path 221" d="M89.61,75.93v.82c-.67,34.14-62,34.14-62.64,0v-.82C27,60.15,41,49.07,54,42.05H51.06a2.62,2.62,0,0,1,0-5.23h5a41.86,41.86,0,0,1-13.5-10.18H74.63a41.76,41.76,0,0,1-13.5,10.18h5a2.62,2.62,0,0,1,0,5.23H63.18C76.13,49.07,89.61,60.15,89.61,75.93Z" transform="translate(1.51 4.27)" fill="#3482a5" opacity="0.45" style="isolation:isolate"/><path id="Path_222" data-name="Path 222" d="M89.79,75.84v.82c-.66,34.13-61.95,34.13-62.61,0v-.82c0-15.78,14.07-26.86,27-33.88h-3a2.62,2.62,0,0,1-.1-5.23h5.09a41.76,41.76,0,0,1-13.5-10.18H74.83a41.76,41.76,0,0,1-13.5,10.18h5a2.62,2.62,0,0,1,0,5.23H63.39C76.34,49,89.79,60.05,89.79,75.84Z" transform="translate(1.51 4.27)" fill="#347fa1" opacity="0.47" style="isolation:isolate"/><path id="Path_223" data-name="Path 223" d="M90,75.73v.82c-.66,34.13-61.92,34.13-62.58,0v-.82c0-15.77,14.07-26.86,27-33.88h-3a2.62,2.62,0,1,1-.1-5.23h5.09A41.86,41.86,0,0,1,43,26.44H75a41.76,41.76,0,0,1-13.5,10.18h5a2.62,2.62,0,1,1,.1,5.23h-3C76.55,48.87,90,60,90,75.73Z" transform="translate(1.51 4.27)" fill="#337c9d" opacity="0.49" style="isolation:isolate"/><path id="Path_224" data-name="Path 224" d="M90.15,75.63v.83c-.66,34.12-61.9,34.12-62.55,0v-.83c0-15.77,14.06-26.86,27-33.88H51.68a2.62,2.62,0,1,1-.1-5.23h5.08a41.76,41.76,0,0,1-13.5-10.18H75.25A41.69,41.69,0,0,1,61.73,36.52h5a2.62,2.62,0,0,1,.1,5.23h-3C76.75,48.77,90.15,59.86,90.15,75.63Z" transform="translate(1.51 4.27)" fill="#337a9a" opacity="0.51" style="isolation:isolate"/><path id="Path_225" data-name="Path 225" d="M90.33,75.54v.82c-.66,34.12-61.87,34.12-62.53,0v-.82c0-15.78,14.06-26.86,27-33.88H51.89a2.62,2.62,0,0,1-.11-5.24h5.09a41.76,41.76,0,0,1-13.5-10.18H75.45A41.48,41.48,0,0,1,62,36.42h5a2.62,2.62,0,0,1,.1,5.24H64C77,48.68,90.33,59.77,90.33,75.54Z" transform="translate(1.51 4.27)" fill="#327796" opacity="0.53" style="isolation:isolate"/><path id="Path_226" data-name="Path 226" d="M90.52,75.44v.82c-.67,34.12-61.85,34.12-62.51,0v-.82c0-15.78,14.07-26.86,27-33.88H52.09a2.62,2.62,0,0,1,0-5.24h5a41.83,41.83,0,0,1-13.5-10.17H75.66a41.8,41.8,0,0,1-13.5,10.16h5a2.62,2.62,0,0,1,0,5.24H64.21C77.17,48.58,90.52,59.66,90.52,75.44Z" transform="translate(1.51 4.27)" fill="#327492" opacity="0.55" style="isolation:isolate"/><path id="Path_227" data-name="Path 227" d="M90.69,75.34v.82c-.66,34.12-61.81,34.12-62.48,0v-.82c0-15.78,14.07-26.86,27-33.88H52.3a2.62,2.62,0,0,1,0-5.23h5a41.76,41.76,0,0,1-13.5-10.18H75.87A41.8,41.8,0,0,1,62.36,36.23h5a2.62,2.62,0,0,1,0,5.23H64.41C77.37,48.48,90.69,59.56,90.69,75.34Z" transform="translate(1.51 4.27)" fill="#31718e" opacity="0.57" style="isolation:isolate"/><path id="Path_228" data-name="Path 228" d="M90.88,75.24v.82c-.66,34.13-61.8,34.13-62.46,0v-.82c0-15.77,14.07-26.86,27-33.88H52.51a2.62,2.62,0,0,1,0-5.23h5A41.86,41.86,0,0,1,44,26H76.07a41.65,41.65,0,0,1-13.5,10.18h5a2.62,2.62,0,0,1,0,5.23H64.63C77.58,48.38,90.88,59.47,90.88,75.24Z" transform="translate(1.51 4.27)" fill="#316e8a" opacity="0.59" style="isolation:isolate"/><path id="Path_229" data-name="Path 229" d="M91.06,75.14V76c-.66,34.12-61.77,34.12-62.43,0v-.83c0-15.77,14.07-26.86,27-33.88H52.71a2.62,2.62,0,0,1-.1-5.23H57.7A41.76,41.76,0,0,1,44.2,25.85H76.28A41.61,41.61,0,0,1,62.79,36h5a2.62,2.62,0,0,1,0,5.23h-3C77.79,48.28,91.06,59.37,91.06,75.14Z" transform="translate(1.51 4.27)" fill="#306b86" opacity="0.61" style="isolation:isolate"/><path id="Path_230" data-name="Path 230" d="M91.25,75.05v.82c-.66,34.12-61.74,34.12-62.4,0v-.82c0-15.78,14.07-26.86,27-33.88h-3a2.62,2.62,0,1,1-.1-5.23H57.9A41.86,41.86,0,0,1,44.4,25.76H76.49A41.76,41.76,0,0,1,63,35.94h5a2.62,2.62,0,0,1,.1,5.23H65C78,48.18,91.25,59.27,91.25,75.05Z" transform="translate(1.51 4.27)" fill="#306882" opacity="0.63" style="isolation:isolate"/><path id="Path_231" data-name="Path 231" d="M91.42,75v.82c-.66,34.12-61.72,34.12-62.38,0V75c0-15.78,14.07-26.86,27-33.88H53.13a2.62,2.62,0,0,1,0-5.24h5a41.73,41.73,0,0,1-13.5-10.17H76.69a41.62,41.62,0,0,1-13.5,10.17h5a2.62,2.62,0,0,1,0,5.24H65.25C78.2,48.09,91.42,59.17,91.42,75Z" transform="translate(1.51 4.27)" fill="#2f667e" opacity="0.65" style="isolation:isolate"/><path id="Path_232" data-name="Path 232" d="M91.6,74.85v.82c-.66,34.12-61.69,34.12-62.35,0v-.82c0-15.78,14.07-26.86,27-33.88h-3a2.62,2.62,0,0,1,0-5.23h5a41.76,41.76,0,0,1-13.5-10.18H76.9A41.76,41.76,0,0,1,63.4,35.74h5a2.62,2.62,0,0,1,0,5.23H65.46C78.41,48,91.6,59.07,91.6,74.85Z" transform="translate(1.51 4.27)" fill="#2f637a" opacity="0.67" style="isolation:isolate"/><path id="Path_233" data-name="Path 233" d="M91.78,74.75v.82c-.67,34.13-61.67,34.13-62.33,0v-.82c0-15.77,14.06-26.86,27-33.88H53.54a2.62,2.62,0,0,1,0-5.23h5A41.76,41.76,0,0,1,45,25.46H77.11A41.65,41.65,0,0,1,63.6,35.64h5a2.62,2.62,0,0,1,0,5.23H65.66C78.61,47.89,91.78,59,91.78,74.75Z" transform="translate(1.51 4.27)" fill="#2e6076" opacity="0.69" style="isolation:isolate"/><path id="Path_234" data-name="Path 234" d="M92,74.65v.82c-.66,34.13-61.63,34.13-62.3,0v-.82c0-15.78,14.07-26.86,27-33.88H53.75a2.62,2.62,0,1,1-.1-5.23h5.08a41.76,41.76,0,0,1-13.5-10.18H77.32a41.86,41.86,0,0,1-13.5,10.18h5a2.62,2.62,0,1,1,.1,5.23h-3C78.82,47.79,92,58.87,92,74.65Z" transform="translate(1.51 4.27)" fill="#2e5d73" opacity="0.71" style="isolation:isolate"/><path id="Path_235" data-name="Path 235" d="M92.14,74.55v.83c-.66,34.12-61.61,34.12-62.27,0v-.83c0-15.77,14.07-26.86,27-33.88H54a2.62,2.62,0,1,1-.1-5.23h5.09a41.65,41.65,0,0,1-13.5-10.18H77.52A41.76,41.76,0,0,1,64,35.44h5a2.62,2.62,0,0,1,.11,5.23h-3C79,47.69,92.14,58.78,92.14,74.55Z" transform="translate(1.51 4.27)" fill="#2d5a6f" opacity="0.73" style="isolation:isolate"/><path id="Path_236" data-name="Path 236" d="M92.32,74.46v.82c-.66,34.12-61.58,34.12-62.24,0v-.82c0-15.78,14.06-26.86,27-33.88H54.16a2.62,2.62,0,0,1,0-5.24h5a41.73,41.73,0,0,1-13.5-10.17H77.73a41.83,41.83,0,0,1-13.5,10.17h5a2.62,2.62,0,0,1,0,5.24H66.28C79.23,47.6,92.32,58.68,92.32,74.46Z" transform="translate(1.51 4.27)" fill="#2d576b" opacity="0.75" style="isolation:isolate"/><path id="Path_237" data-name="Path 237" d="M92.5,74.36v.82c-.67,34.13-61.56,34.13-62.22,0v-.82c0-15.78,14.06-26.86,27-33.88H54.36A2.62,2.62,0,1,1,54,35.26h5.39a41.86,41.86,0,0,1-13.5-10.18H77.94a41.86,41.86,0,0,1-13.5,10.18h5a2.62,2.62,0,1,1,.1,5.23h-3C79.44,47.5,92.5,58.58,92.5,74.36Z" transform="translate(1.51 4.27)" fill="#2c5467" opacity="0.76" style="isolation:isolate"/><path id="Path_238" data-name="Path 238" d="M92.68,74.26v.82c-.66,34.12-61.53,34.12-62.19,0v-.82c0-15.78,14.07-26.86,27-33.88h-3a2.62,2.62,0,1,1-.1-5.23h5.09A41.91,41.91,0,0,1,46.05,25H78.14A41.77,41.77,0,0,1,64.63,35.15h5a2.62,2.62,0,0,1,.1,5.23h-3C79.65,47.4,92.68,58.48,92.68,74.26Z" transform="translate(1.51 4.27)" fill="#2c5163" opacity="0.78" style="isolation:isolate"/><path id="Path_239" data-name="Path 239" d="M92.87,74.16V75c-.66,34.13-61.51,34.13-62.17,0v-.82c0-15.78,14.07-26.86,27-33.88H54.78a2.62,2.62,0,1,1-.1-5.23h5.08a41.76,41.76,0,0,1-13.5-10.18H78.34a41.76,41.76,0,0,1-13.5,10.18h5a2.62,2.62,0,0,1,0,5.23H66.9C79.85,47.3,92.87,58.38,92.87,74.16Z" transform="translate(1.51 4.27)" fill="#2b4f5f" opacity="0.8" style="isolation:isolate"/><path id="Path_240" data-name="Path 240" d="M93.05,74.06v.83C92.38,109,31.56,109,30.9,74.89v-.83c0-15.77,14.07-26.86,27-33.88H55A2.62,2.62,0,0,1,54.88,35H60a41.76,41.76,0,0,1-13.5-10.18H78.55A41.65,41.65,0,0,1,65.05,35h5a2.62,2.62,0,0,1,0,5.23H67.1C80.06,47.2,93.05,58.29,93.05,74.06Z" transform="translate(1.51 4.27)" fill="#2b4c5b" opacity="0.82" style="isolation:isolate"/><path id="Path_241" data-name="Path 241" d="M93.23,74v.82c-.66,34.12-61.47,34.12-62.13,0V74c0-15.78,14.06-26.85,27-33.88H55.19a2.62,2.62,0,0,1-.1-5.23h5.09a41.76,41.76,0,0,1-13.5-10.18H78.76a41.76,41.76,0,0,1-13.5,10.18h5a2.62,2.62,0,0,1,0,5.23H67.31C80.27,47.12,93.23,58.18,93.23,74Z" transform="translate(1.51 4.27)" fill="#2a4957" opacity="0.84" style="isolation:isolate"/><path id="Path_242" data-name="Path 242" d="M93.41,73.87v.82c-.66,34.12-61.43,34.12-62.09,0v-.82c0-15.78,14.07-26.86,27-33.88H55.41a2.62,2.62,0,0,1,0-5.24h5a41.83,41.83,0,0,1-13.5-10.17H79a41.83,41.83,0,0,1-13.5,10.17h5a2.62,2.62,0,0,1,0,5.24H67.52C80.47,47,93.41,58.09,93.41,73.87Z" transform="translate(1.51 4.27)" fill="#2a4653" opacity="0.86" style="isolation:isolate"/><path id="Path_243" data-name="Path 243" d="M93.59,73.77v.82c-.66,34.12-61.4,34.12-62.07,0v-.82c0-15.78,14.07-26.86,27-33.88H55.6a2.62,2.62,0,0,1,0-5.23h5a41.76,41.76,0,0,1-13.5-10.18H79.17a41.76,41.76,0,0,1-13.5,10.18h5a2.62,2.62,0,0,1,.11,5.23h-3C80.68,46.91,93.59,58,93.59,73.77Z" transform="translate(1.51 4.27)" fill="#29434f" opacity="0.88" style="isolation:isolate"/><path id="Path_244" data-name="Path 244" d="M93.77,73.67v.82c-.66,34.13-61.38,34.13-62,0v-.82c0-15.78,14.07-26.86,27-33.88H55.81a2.62,2.62,0,0,1-.1-5.23H60.8A41.65,41.65,0,0,1,47.3,24.38H79.4A41.8,41.8,0,0,1,65.89,34.56h5a2.62,2.62,0,0,1,0,5.23H67.93C80.89,46.81,93.77,57.89,93.77,73.67Z" transform="translate(1.51 4.27)" fill="#29404c" opacity="0.9" style="isolation:isolate"/><path id="Path_245" data-name="Path 245" d="M94,73.57v.83c-.67,34.12-61.36,34.12-62,0v-.83C31.93,57.8,46,46.71,59,39.69H56a2.62,2.62,0,1,1-.1-5.23H61A41.76,41.76,0,0,1,47.5,24.28H79.58a41.79,41.79,0,0,1-13.5,10.19h5a2.62,2.62,0,0,1,.1,5.23h-3C81.09,46.71,94,57.8,94,73.57Z" transform="translate(1.51 4.27)" fill="#283d48" opacity="0.92" style="isolation:isolate"/><path id="Path_246" data-name="Path 246" d="M94.13,73.47v.82c-.66,34.12-61.32,34.12-62,0v-.82c0-15.78,14.07-26.86,27-33.88h-3a2.62,2.62,0,0,1-.1-5.24h5.08a41.7,41.7,0,0,1-13.5-10.16H79.79a41.76,41.76,0,0,1-13.5,10.18h5a2.62,2.62,0,0,1,0,5.23H68.35C81.3,46.61,94.13,57.7,94.13,73.47Z" transform="translate(1.51 4.27)" fill="#283b44" opacity="0.94" style="isolation:isolate"/><path id="Path_247" data-name="Path 247" d="M94.31,73.38v.82c-.66,34.12-61.3,34.12-62,0v-.82c0-15.78,14.07-26.86,27-33.88h-3a2.62,2.62,0,1,1-.1-5.24h5.09a41.62,41.62,0,0,1-13.5-10.17H80A41.73,41.73,0,0,1,66.5,34.26h5a2.62,2.62,0,0,1,.1,5.24h-3C81.5,46.52,94.31,57.6,94.31,73.38Z" transform="translate(1.51 4.27)" fill="#273840" opacity="0.96" style="isolation:isolate"/><path id="Path_248" data-name="Path 248" d="M94.49,73.28v.82c-.66,34.12-61.27,34.12-61.92,0v-.82c0-15.78,14.06-26.86,27-33.88h-3a2.62,2.62,0,0,1,0-5.23h5A41.86,41.86,0,0,1,48.12,24H80.21a41.76,41.76,0,0,1-13.5,10.18h5a2.62,2.62,0,0,1,0,5.23H68.76C81.71,46.42,94.49,57.5,94.49,73.28Z" transform="translate(1.51 4.27)" fill="#27353c" opacity="0.98" style="isolation:isolate"/><path id="Path_249" data-name="Path 249" d="M94.67,73.18V74c-.66,34.13-61.25,34.13-61.92,0v-.83c0-15.78,14.07-26.84,27-33.87H56.85a2.62,2.62,0,1,1-.1-5.23h5.08a41.76,41.76,0,0,1-13.5-10.18H80.42a41.86,41.86,0,0,1-13.5,10.18h5a2.62,2.62,0,0,1,0,5.23H69C81.92,46.33,94.67,57.39,94.67,73.18Z" transform="translate(1.51 4.27)" fill="#263238"/></g><path id="Path_250" data-name="Path 250" d="M69,39.3c13,7,25.72,18.09,25.72,33.88V74c-.67,34.13-59.94,34.13-60.61,0v-.83c0-15.77,12.75-26.84,25.71-33.87Z" transform="translate(1.51 4.27)" fill="#ffb74d"/><path id="Path_251" data-name="Path 251" d="M66.34,34.33A41.49,41.49,0,0,0,80.41,23.89H48.33A41.49,41.49,0,0,0,62.4,34.33Z" transform="translate(1.51 4.27)" fill="#ffb74d"/><path id="Path_252" data-name="Path 252" d="M58,23.89a31.89,31.89,0,0,0,5.57,10.44H62.4A41.59,41.59,0,0,1,48.33,23.89Z" transform="translate(1.51 4.27)" fill="#ffa726"/><path id="Path_253" data-name="Path 253" d="M71.89,34.07h-15a2.61,2.61,0,0,0-2.62,2.61h0a2.62,2.62,0,0,0,2.62,2.62h15a2.61,2.61,0,0,0,2.62-2.61h0a2.61,2.61,0,0,0-2.61-2.62Z" transform="translate(1.51 4.27)" fill="#37474f"/><path id="Path_254" data-name="Path 254" d="M69.18,78.33H56.7a1.52,1.52,0,1,0-.11,3h6.09v3.69a1.52,1.52,0,0,0,3,0V81.37h3.47a4,4,0,0,0,4-4V73.28a4,4,0,0,0-4-4h-10a1,1,0,0,1-1-1V64.17a1,1,0,0,1,1-1H71.7a1.52,1.52,0,0,0,0-3h-6V56.45a1.52,1.52,0,0,0-3,0v3.69H59.22a4,4,0,0,0-4,4v4.06a4,4,0,0,0,4,4h10a1,1,0,0,1,1,1v4.06a1,1,0,0,1-1,1Z" transform="translate(1.51 4.27)" fill="#eceff1"/><path id="Path_255" data-name="Path 255" d="M64.37,99.59h-.61C48.44,99.37,34.64,91,34.08,74.4V73.18c0-15.78,12.74-26.85,25.7-33.88h1.81c-7.86,7-13.18,20.74-13.18,36.51v.83C48.61,93.7,56.49,99.59,64.37,99.59Z" transform="translate(1.51 4.27)" fill="#ffa726"/></g></g></g></g></g></svg>