<svg xmlns="http://www.w3.org/2000/svg" viewBox="0 0 500 500"><title>yellow money bag</title><g style="isolation:isolate"><g id="BACKGROUND"><rect width="500" height="500" style="fill:#cfd8dc"/></g><g id="OBJECTS"><g style="opacity:0.2;mix-blend-mode:multiply"><path d="M330,312.91c0,1,0,2.07,0,3.12C327.46,445.52,92.54,445.52,90,316c0-1,0-2.08,0-3.12C90,253,143.39,211,192.57,184.34H181.45a9.93,9.93,0,1,1,0-19.86h18.91a158.36,158.36,0,0,1-51.24-38.62H270.88a158.36,158.36,0,0,1-51.24,38.62h18.91a9.93,9.93,0,0,1,0,19.86H227.43C276.6,211,330,253,330,312.91Z" style="fill:#40c4ff;opacity:0"/><path d="M330.69,312.53c0,1,0,2.07,0,3.12-2.51,129.49-237.34,129.49-239.85,0,0-1,0-2.08,0-3.12,0-59.87,53.39-101.93,102.57-128.57H182.23a9.93,9.93,0,1,1,0-19.86h18.91a158.36,158.36,0,0,1-51.24-38.62H271.66a158.36,158.36,0,0,1-51.24,38.62h18.91a9.93,9.93,0,0,1,0,19.86H228.21C277.38,210.6,330.69,252.66,330.69,312.53Z" style="fill:#3fc1fb;opacity:0.019608"/><path d="M331.37,312.16c0,1,0,2.07,0,3.12-2.51,129.49-237.23,129.49-239.74,0,0-1,0-2.08,0-3.12,0-59.87,53.39-101.93,102.57-128.57H183a9.93,9.93,0,0,1,0-19.86h18.91a158.36,158.36,0,0,1-51.24-38.62H272.45a158.36,158.36,0,0,1-51.24,38.62h18.91a9.93,9.93,0,0,1,0,19.86H229C278.17,210.23,331.37,252.29,331.37,312.16Z" style="fill:#3fbef7;opacity:0.039216"/><path d="M332.06,311.79c0,1,0,2.07,0,3.12-2.51,129.49-237.14,129.49-239.65,0,0-1.05,0-2.08,0-3.12,0-59.87,53.39-101.93,102.57-128.57H183.8a9.93,9.93,0,1,1,0-19.86h18.91a158.36,158.36,0,0,1-51.24-38.62H273.23A158.36,158.36,0,0,1,222,163.36H240.9a9.93,9.93,0,1,1,0,19.86H229.78C279,209.86,332.06,251.92,332.06,311.79Z" style="fill:#3ebbf3;opacity:0.058823999999999994"/><path d="M332.75,311.42c0,1,0,2.07,0,3.12-2.5,129.49-237,129.49-239.54,0,0-1.05,0-2.08,0-3.12,0-59.88,53.39-101.93,102.57-128.57H184.59a9.93,9.93,0,1,1,0-19.86H203.5a158.36,158.36,0,0,1-51.24-38.62H274A158.36,158.36,0,0,1,222.78,163h18.91a9.93,9.93,0,1,1,0,19.86H230.57C279.74,209.49,332.75,251.54,332.75,311.42Z" style="fill:#3eb9ef;opacity:0.078431"/><path d="M333.43,311c0,1,0,2.07,0,3.12-2.51,129.49-236.94,129.49-239.45,0,0-1.05,0-2.08,0-3.12,0-59.87,53.39-101.93,102.57-128.57H185.37a9.93,9.93,0,1,1,0-19.86h18.91A158.36,158.36,0,0,1,153,124H274.8a158.36,158.36,0,0,1-51.24,38.62h18.91a9.93,9.93,0,1,1,0,19.86H231.35C280.52,209.11,333.43,251.17,333.43,311Z" style="fill:#3db6eb;opacity:0.098039"/><path d="M334.12,310.67c0,1,0,2.07,0,3.12-2.51,129.49-236.84,129.49-239.35,0,0-1.05,0-2.08,0-3.12,0-59.87,53.39-101.93,102.57-128.57H186.16a9.93,9.93,0,1,1,0-19.86h18.91a158.36,158.36,0,0,1-51.24-38.62H275.59a158.36,158.36,0,0,1-51.24,38.62h18.91a9.93,9.93,0,1,1,0,19.86H232.14C281.31,208.74,334.12,250.8,334.12,310.67Z" style="fill:#3db3e8;opacity:0.117647"/><path d="M334.8,310.3c0,1,0,2.07,0,3.12-2.51,129.49-236.74,129.49-239.25,0,0-1.05,0-2.08,0-3.12,0-59.87,53.39-101.93,102.57-128.57H186.94a9.93,9.93,0,0,1,0-19.86h18.91a158.36,158.36,0,0,1-51.24-38.62H276.37a158.36,158.36,0,0,1-51.24,38.62H244a9.93,9.93,0,1,1,0,19.86H232.92C282.09,208.37,334.8,250.43,334.8,310.3Z" style="fill:#3cb0e4;opacity:0.137255"/><path d="M335.49,309.93c0,1,0,2.07,0,3.11C333,442.54,98.81,442.54,96.3,313c0-1,0-2.08,0-3.11,0-59.88,53.39-101.93,102.57-128.58H187.72a9.93,9.93,0,1,1,0-19.85h18.91a158.47,158.47,0,0,1-51.24-38.62H277.15a158.36,158.36,0,0,1-51.24,38.62h18.91a9.93,9.93,0,1,1,0,19.85H233.7C282.87,208,335.49,250.05,335.49,309.93Z" style="fill:#3cade0;opacity:0.156863"/><path d="M336.18,309.55c0,1,0,2.07,0,3.12-2.51,129.49-236.55,129.49-239.06,0,0-1.05,0-2.08,0-3.12,0-59.87,53.39-101.93,102.57-128.57H188.51a9.93,9.93,0,0,1,0-19.86h18.91a158.36,158.36,0,0,1-51.24-38.62H277.94a158.36,158.36,0,0,1-51.24,38.62h18.91a9.93,9.93,0,0,1,0,19.86H234.49C283.66,207.62,336.18,249.68,336.18,309.55Z" style="fill:#3baadc;opacity:0.176471"/><path d="M336.86,309.18c0,1,0,2.07,0,3.12-2.51,129.49-236.45,129.49-239,0,0-1.05,0-2.08,0-3.12,0-59.87,53.39-101.93,102.57-128.57H189.29a9.93,9.93,0,1,1,0-19.86H208.2A158.36,158.36,0,0,1,157,122.13H278.72a158.36,158.36,0,0,1-51.24,38.62h18.91a9.93,9.93,0,0,1,0,19.86H235.27C284.44,207.25,336.86,249.31,336.86,309.18Z" style="fill:#3ba7d8;opacity:0.196078"/><path d="M337.55,308.81c0,1,0,2.07,0,3.12-2.51,129.49-236.35,129.49-238.86,0,0-1.05,0-2.08,0-3.12,0-59.87,53.39-101.93,102.57-128.57H190.08a9.93,9.93,0,1,1,0-19.86H209a158.36,158.36,0,0,1-51.24-38.62H279.51a158.36,158.36,0,0,1-51.24,38.62h18.91a9.93,9.93,0,0,1,0,19.86H236.06C285.23,206.88,337.55,248.94,337.55,308.81Z" style="fill:#3aa5d4;opacity:0.215686"/><path d="M338.24,308.44c0,1,0,2.07,0,3.11C335.7,441,102,441,99.44,311.55c0-1,0-2.08,0-3.11,0-59.88,53.39-101.94,102.57-128.58H190.86a9.93,9.93,0,1,1,0-19.85h18.91a158.25,158.25,0,0,1-51.24-38.63H280.29A158.25,158.25,0,0,1,229.05,160H248a9.93,9.93,0,1,1,0,19.85H236.84C286,206.5,338.24,248.56,338.24,308.44Z" style="fill:#3aa2d0;opacity:0.235294"/><path d="M338.92,308.06c0,1,0,2.07,0,3.12-2.51,129.49-236.15,129.49-238.66,0,0-1.05,0-2.08,0-3.12,0-59.87,53.39-101.93,102.57-128.57H191.65a9.93,9.93,0,0,1,0-19.86h18.91A158.36,158.36,0,0,1,159.32,121H281.08a158.36,158.36,0,0,1-51.24,38.62h18.91a9.93,9.93,0,0,1,0,19.86H237.63C286.8,206.13,338.92,248.19,338.92,308.06Z" style="fill:#399fcc;opacity:0.25490199999999996"/><path d="M339.61,307.69c0,1,0,2.07,0,3.12-2.51,129.49-236.06,129.49-238.57,0,0-1.05,0-2.08,0-3.12,0-59.87,53.39-101.93,102.57-128.57H192.43a9.93,9.93,0,0,1,0-19.86h18.91a158.36,158.36,0,0,1-51.24-38.62H281.86a158.36,158.36,0,0,1-51.24,38.62h18.91a9.93,9.93,0,0,1,0,19.86H238.41C287.58,205.76,339.61,247.82,339.61,307.69Z" style="fill:#399cc8;opacity:0.27451000000000003"/><path d="M340.29,307.32c0,1,0,2.07,0,3.12-2.51,129.49-236,129.49-238.47,0,0-1.05,0-2.08,0-3.12,0-59.87,53.39-101.93,102.58-128.57H193.21a9.93,9.93,0,1,1,0-19.86h18.91a158.36,158.36,0,0,1-51.24-38.62H282.64a158.36,158.36,0,0,1-51.24,38.62h18.91a9.93,9.93,0,1,1,0,19.86H239.19C288.36,205.39,340.29,247.45,340.29,307.32Z" style="fill:#3899c4;opacity:0.294118"/><path d="M341,307c0,1,0,2.07,0,3.11-2.51,129.49-235.86,129.49-238.37,0,0-1,0-2.08,0-3.11,0-59.88,53.39-101.94,102.57-128.57H194a9.94,9.94,0,0,1,0-19.87h18.91a158.22,158.22,0,0,1-51.24-38.62H283.43a158.22,158.22,0,0,1-51.24,38.62H251.1a9.94,9.94,0,0,1,0,19.87H240C289.15,205,341,247.07,341,307Z" style="fill:#3896c1;opacity:0.313726"/><path d="M341.67,306.57c0,1,0,2.07,0,3.12-2.51,129.49-235.77,129.49-238.28,0,0-1.05,0-2.08,0-3.12,0-59.87,53.39-101.93,102.57-128.57H194.78a9.93,9.93,0,0,1,0-19.86h18.91a158.36,158.36,0,0,1-51.24-38.62H284.21A158.36,158.36,0,0,1,233,158.14h18.91a9.93,9.93,0,1,1,0,19.86H240.76C289.93,204.64,341.67,246.7,341.67,306.57Z" style="fill:#3793bd;opacity:0.333333"/><path d="M342.35,306.2c0,1,0,2.07,0,3.12-2.51,129.49-235.66,129.49-238.17,0,0-1.05,0-2.08,0-3.12,0-59.87,53.39-101.93,102.57-128.57H195.57a9.93,9.93,0,1,1,0-19.86h18.91a158.36,158.36,0,0,1-51.24-38.62H285a158.36,158.36,0,0,1-51.24,38.62h18.91a9.93,9.93,0,1,1,0,19.86H241.55C290.72,204.27,342.35,246.33,342.35,306.2Z" style="fill:#3790b9;opacity:0.352941"/><path d="M343,305.83c0,1,0,2.07,0,3.12-2.51,129.49-235.57,129.49-238.08,0,0-1.05,0-2.08,0-3.12,0-59.87,53.39-101.93,102.57-128.57H196.35a9.93,9.93,0,0,1,0-19.86h18.91A158.36,158.36,0,0,1,164,118.78H285.78a158.36,158.36,0,0,1-51.24,38.62h18.91a9.93,9.93,0,1,1,0,19.86H242.33C291.5,203.9,343,246,343,305.83Z" style="fill:#368eb5;opacity:0.37254899999999996"/><path d="M343.73,305.46c0,1,0,2.07,0,3.11-2.51,129.49-235.47,129.49-238,0,0-1,0-2.08,0-3.11,0-59.88,53.39-101.94,102.57-128.58H197.14a9.93,9.93,0,1,1,0-19.86h18.91a158.22,158.22,0,0,1-51.24-38.62H286.57A158.22,158.22,0,0,1,235.33,157h18.91a9.93,9.93,0,1,1,0,19.86H243.12C292.29,203.52,343.73,245.58,343.73,305.46Z" style="fill:#368bb1;opacity:0.392157"/><path d="M344.41,305.08c0,1,0,2.07,0,3.12-2.51,129.49-235.37,129.49-237.88,0,0-1.05,0-2.08,0-3.12,0-59.87,53.39-101.93,102.57-128.57H197.92a9.93,9.93,0,0,1,0-19.86h18.91A158.36,158.36,0,0,1,165.59,118H287.35a158.36,158.36,0,0,1-51.24,38.62H255a9.93,9.93,0,0,1,0,19.86H243.9C293.07,203.15,344.41,245.21,344.41,305.08Z" style="fill:#3588ad;opacity:0.411765"/><path d="M345.1,304.71c0,1,0,2.07,0,3.12-2.51,129.49-235.28,129.49-237.79,0,0-1.05,0-2.08,0-3.12,0-59.87,53.4-101.93,102.57-128.57H198.71a9.93,9.93,0,0,1,0-19.86h18.9a158.32,158.32,0,0,1-51.23-38.62H288.13a158.15,158.15,0,0,1-51.24,38.62H255.8a9.93,9.93,0,1,1,0,19.86H244.68C293.85,202.78,345.1,244.84,345.1,304.71Z" style="fill:#3585a9;opacity:0.431373"/><path d="M345.78,304.34c0,1,0,2.07,0,3.12C343.24,437,110.58,437,108.07,307.46c0-1,0-2.08,0-3.12,0-59.87,53.39-101.93,102.57-128.57H199.49a9.93,9.93,0,0,1,0-19.86H218.4a158.36,158.36,0,0,1-51.24-38.62H288.92a158.36,158.36,0,0,1-51.24,38.62h18.91a9.93,9.93,0,0,1,0,19.86H245.47C294.64,202.41,345.78,244.47,345.78,304.34Z" style="fill:#3482a5;opacity:0.45098000000000005"/><path d="M346.47,304q0,1.56,0,3.12c-2.51,129.49-235.08,129.49-237.59,0q0-1.56,0-3.12c0-59.87,53.39-101.93,102.57-128.57H200.27a9.93,9.93,0,0,1,0-19.86h18.91a158.36,158.36,0,0,1-51.24-38.62H289.7a158.36,158.36,0,0,1-51.24,38.62h18.91a9.93,9.93,0,1,1,0,19.86H246.25C295.42,202,346.47,244.09,346.47,304Z" style="fill:#347fa1;opacity:0.470588"/><path d="M347.16,303.59c0,1,0,2.07,0,3.12-2.51,129.49-235,129.49-237.49,0,0-1,0-2.08,0-3.12,0-59.87,53.39-101.93,102.57-128.57H201.06a9.93,9.93,0,0,1,0-19.86H220a158.36,158.36,0,0,1-51.24-38.62H290.49a158.36,158.36,0,0,1-51.24,38.62h18.91a9.93,9.93,0,0,1,0,19.86H247C296.21,201.66,347.16,243.72,347.16,303.59Z" style="fill:#337c9d;opacity:0.49019599999999997"/><path d="M347.84,303.22c0,1,0,2.07,0,3.12-2.51,129.49-234.88,129.49-237.39,0,0-1,0-2.08,0-3.12,0-59.87,53.39-101.93,102.57-128.57H201.84a9.93,9.93,0,0,1,0-19.86h18.91a158.36,158.36,0,0,1-51.24-38.62H291.27A158.36,158.36,0,0,1,240,154.79h18.91a9.93,9.93,0,0,1,0,19.86H247.82C297,201.29,347.84,243.35,347.84,303.22Z" style="fill:#337a9a;opacity:0.5098039999999999"/><path d="M348.53,302.85c0,1,0,2.07,0,3.12C346,435.46,113.72,435.46,111.21,306c0-1.05,0-2.08,0-3.12,0-59.87,53.39-101.93,102.57-128.57H202.63a9.93,9.93,0,0,1,0-19.86h18.91A158.36,158.36,0,0,1,170.3,115.8H292.06a158.36,158.36,0,0,1-51.24,38.62h18.91a9.93,9.93,0,0,1,0,19.86H248.61C297.78,200.92,348.53,243,348.53,302.85Z" style="fill:#327796;opacity:0.529412"/><path d="M349.22,302.47c0,1,0,2.07,0,3.12-2.51,129.49-234.69,129.49-237.2,0,0-1,0-2.08,0-3.12,0-59.87,53.39-101.93,102.57-128.57H203.41a9.93,9.93,0,0,1,0-19.86h18.91a158.36,158.36,0,0,1-51.24-38.62H292.84A158.36,158.36,0,0,1,241.6,154h18.91a9.93,9.93,0,0,1,0,19.86H249.39C298.56,200.54,349.22,242.6,349.22,302.47Z" style="fill:#327492;opacity:0.5490200000000001"/><path d="M349.9,302.1c0,1,0,2.07,0,3.12-2.51,129.49-234.58,129.49-237.1,0,0-1.05,0-2.08,0-3.12,0-59.87,53.39-101.93,102.56-128.57H204.2a9.93,9.93,0,1,1,0-19.86h18.9a158.32,158.32,0,0,1-51.23-38.62H293.63a158.3,158.3,0,0,1-51.25,38.62h18.91a9.93,9.93,0,1,1,0,19.86H250.17C299.34,200.17,349.9,242.23,349.9,302.1Z" style="fill:#31718e;opacity:0.568627"/><path d="M350.59,301.73c0,1,0,2.07,0,3.12-2.51,129.49-234.49,129.49-237,0,0-1.05,0-2.08,0-3.12,0-59.87,53.39-101.93,102.57-128.57H205a9.93,9.93,0,1,1,0-19.86h18.91a158.36,158.36,0,0,1-51.24-38.62H294.41a158.36,158.36,0,0,1-51.24,38.62h18.91a9.93,9.93,0,1,1,0,19.86H251C300.13,199.8,350.59,241.86,350.59,301.73Z" style="fill:#316e8a;opacity:0.588235"/><path d="M351.27,301.36c0,1,0,2.07,0,3.12-2.51,129.49-234.39,129.49-236.9,0,0-1.05,0-2.08,0-3.12,0-59.87,53.39-101.93,102.57-128.57H205.76a9.93,9.93,0,1,1,0-19.86h18.91a158.36,158.36,0,0,1-51.24-38.62H295.19A158.36,158.36,0,0,1,244,152.93h18.91a9.93,9.93,0,1,1,0,19.86H251.74C300.91,199.43,351.27,241.49,351.27,301.36Z" style="fill:#306b86;opacity:0.607843"/><path d="M352,301c0,1,0,2.07,0,3.12-2.51,129.49-234.29,129.49-236.8,0,0-1.05,0-2.08,0-3.12,0-59.87,53.39-101.93,102.57-128.57H206.55a9.93,9.93,0,0,1,0-19.86h18.91a158.36,158.36,0,0,1-51.24-38.62H296a158.36,158.36,0,0,1-51.24,38.62h18.91a9.93,9.93,0,1,1,0,19.86H252.53C301.7,199.05,352,241.11,352,301Z" style="fill:#306882;opacity:0.627451"/><path d="M352.65,300.61c0,1,0,2.07,0,3.12-2.51,129.49-234.2,129.49-236.71,0,0-1.05,0-2.08,0-3.12,0-59.87,53.39-101.93,102.57-128.57H207.33a9.93,9.93,0,0,1,0-19.86h18.91A158.36,158.36,0,0,1,175,113.56H296.76a158.36,158.36,0,0,1-51.24,38.62h18.91a9.93,9.93,0,1,1,0,19.86H253.31C302.48,198.68,352.65,240.74,352.65,300.61Z" style="fill:#2f667e;opacity:0.6470589999999999"/><path d="M353.33,300.24c0,1,0,2.07,0,3.12-2.51,129.49-234.09,129.49-236.6,0,0-1.05,0-2.08,0-3.12,0-59.87,53.39-101.93,102.57-128.57H208.12a9.93,9.93,0,0,1,0-19.86H227a158.36,158.36,0,0,1-51.24-38.62H297.55a158.36,158.36,0,0,1-51.24,38.62h18.91a9.93,9.93,0,0,1,0,19.86H254.1C303.27,198.31,353.33,240.37,353.33,300.24Z" style="fill:#2f637a;opacity:0.666667"/><path d="M354,299.87c0,1,0,2.07,0,3.12-2.51,129.49-234,129.49-236.51,0,0-1.05,0-2.08,0-3.12C117.45,240,170.84,197.94,220,171.3H208.9a9.93,9.93,0,1,1,0-19.86h18.91a158.36,158.36,0,0,1-51.24-38.62H298.33a158.36,158.36,0,0,1-51.24,38.62H266a9.93,9.93,0,0,1,0,19.86H254.88C304.05,197.94,354,240,354,299.87Z" style="fill:#2e6076;opacity:0.686275"/><path d="M354.71,299.49c0,1,0,2.07,0,3.12-2.51,129.49-233.9,129.49-236.41,0,0-1.05,0-2.08,0-3.12,0-59.87,53.39-101.93,102.56-128.57H209.69a9.93,9.93,0,0,1,0-19.86H228.6a158.36,158.36,0,0,1-51.24-38.62H299.12a158.36,158.36,0,0,1-51.24,38.62h18.91a9.93,9.93,0,1,1,0,19.86H255.67C304.83,197.56,354.71,239.62,354.71,299.49Z" style="fill:#2e5d73;opacity:0.705882"/><path d="M355.39,299.12c0,1,0,2.07,0,3.12-2.51,129.49-233.8,129.49-236.31,0,0-1.05,0-2.08,0-3.12,0-59.87,53.39-101.93,102.57-128.57H210.47a9.93,9.93,0,0,1,0-19.86h18.91a158.36,158.36,0,0,1-51.24-38.62H299.9a158.36,158.36,0,0,1-51.24,38.62h18.91a9.93,9.93,0,0,1,0,19.86H256.45C305.62,197.19,355.39,239.25,355.39,299.12Z" style="fill:#2d5a6f;opacity:0.7254900000000001"/><path d="M356.08,298.75c0,1,0,2.07,0,3.12-2.51,129.49-233.71,129.49-236.22,0,0-1.05,0-2.08,0-3.12,0-59.87,53.39-101.93,102.57-128.57H211.25a9.93,9.93,0,0,1,0-19.86h18.91a158.36,158.36,0,0,1-51.24-38.62H300.68a158.36,158.36,0,0,1-51.24,38.62h18.91a9.93,9.93,0,0,1,0,19.86H257.23C306.4,196.82,356.08,238.88,356.08,298.75Z" style="fill:#2d576b;opacity:0.7450979999999999"/><path d="M356.76,298.38c0,1,0,2.07,0,3.12C354.22,431,123.13,431,120.62,301.5c0-1.05,0-2.08,0-3.12,0-59.87,53.39-101.93,102.57-128.57H212A9.93,9.93,0,1,1,212,150H231a158.36,158.36,0,0,1-51.24-38.62H301.47A158.36,158.36,0,0,1,250.23,150h18.91a9.93,9.93,0,0,1,0,19.86H258C307.19,196.45,356.76,238.51,356.76,298.38Z" style="fill:#2c5467;opacity:0.764706"/><path d="M357.45,298c0,1,0,2.07,0,3.12-2.51,129.49-233.51,129.49-236,0,0-1.05,0-2.08,0-3.12,0-59.87,53.39-101.93,102.57-128.57H212.82a9.93,9.93,0,0,1,0-19.86h18.91A158.36,158.36,0,0,1,180.49,111H302.25A158.36,158.36,0,0,1,251,149.57h18.91a9.93,9.93,0,0,1,0,19.86H258.8C308,196.07,357.45,238.13,357.45,298Z" style="fill:#2c5163;opacity:0.784314"/><path d="M358.14,297.63c0,1,0,2.07,0,3.12-2.51,129.49-233.41,129.49-235.92,0,0-1.05,0-2.08,0-3.12,0-59.87,53.39-101.93,102.57-128.57H213.61a9.93,9.93,0,0,1,0-19.86h18.91a158.36,158.36,0,0,1-51.24-38.62H303A158.36,158.36,0,0,1,251.8,149.2h18.91a9.93,9.93,0,0,1,0,19.86H259.59C308.76,195.7,358.14,237.76,358.14,297.63Z" style="fill:#2b4f5f;opacity:0.8039219999999999"/><path d="M358.82,297.26c0,1,0,2.07,0,3.12-2.51,129.49-233.31,129.49-235.82,0,0-1.05,0-2.08,0-3.12,0-59.87,53.39-101.93,102.57-128.57H214.39a9.93,9.93,0,1,1,0-19.86H233.3a158.36,158.36,0,0,1-51.24-38.62H303.82a158.36,158.36,0,0,1-51.24,38.62h18.91a9.93,9.93,0,1,1,0,19.86H260.37C309.54,195.33,358.82,237.39,358.82,297.26Z" style="fill:#2b4c5b;opacity:0.823529"/><path d="M359.51,296.89c0,1,0,2.07,0,3.12C357,429.5,126.27,429.5,123.75,300c0-1.05,0-2.08,0-3.12C123.73,237,177.12,195,226.3,168.32H215.18a9.93,9.93,0,0,1,0-19.86h18.91a158.36,158.36,0,0,1-51.24-38.62H304.61a158.36,158.36,0,0,1-51.24,38.62h18.91a9.93,9.93,0,1,1,0,19.86H261.16C310.33,195,359.51,237,359.51,296.89Z" style="fill:#2a4957;opacity:0.8431369999999999"/><path d="M360.2,296.51c0,1,0,2.07,0,3.12-2.51,129.49-233.12,129.49-235.63,0,0-1.05,0-2.08,0-3.12,0-59.87,53.39-101.93,102.57-128.57H216a9.93,9.93,0,0,1,0-19.86h18.91a158.36,158.36,0,0,1-51.24-38.62H305.39a158.36,158.36,0,0,1-51.24,38.62h18.91a9.93,9.93,0,1,1,0,19.86H261.94C311.11,194.58,360.2,236.64,360.2,296.51Z" style="fill:#2a4653;opacity:0.862745"/><path d="M360.88,296.14c0,1,0,2.07,0,3.12-2.51,129.49-233,129.49-235.53,0,0-1.05,0-2.08,0-3.12,0-59.87,53.39-101.93,102.57-128.57H216.74a9.93,9.93,0,0,1,0-19.86h18.91a158.36,158.36,0,0,1-51.24-38.62H306.17a158.36,158.36,0,0,1-51.24,38.62h18.91a9.93,9.93,0,1,1,0,19.86H262.72C311.89,194.21,360.88,236.27,360.88,296.14Z" style="fill:#29434f;opacity:0.8823529999999999"/><path d="M361.57,295.77c0,1,0,2.07,0,3.12-2.51,129.49-232.92,129.49-235.43,0,0-1.05,0-2.08,0-3.12,0-59.87,53.39-101.93,102.57-128.57H217.53a9.93,9.93,0,0,1,0-19.86h18.91a158.36,158.36,0,0,1-51.24-38.62H307a158.36,158.36,0,0,1-51.24,38.62h18.91a9.93,9.93,0,1,1,0,19.86H263.51C312.68,193.84,361.57,235.9,361.57,295.77Z" style="fill:#29404c;opacity:0.901961"/><path d="M362.25,295.4c0,1,0,2.07,0,3.12C359.71,428,129.4,428,126.89,298.52c0-1,0-2.08,0-3.12,0-59.87,53.39-101.93,102.57-128.57H218.31a9.93,9.93,0,0,1,0-19.86h18.91A158.36,158.36,0,0,1,186,108.35H307.74A158.36,158.36,0,0,1,256.5,147h18.91a9.93,9.93,0,0,1,0,19.86H264.29C313.46,193.47,362.25,235.53,362.25,295.4Z" style="fill:#283d48;opacity:0.921569"/><path d="M362.94,295c0,1,0,2.07,0,3.12-2.51,129.49-232.72,129.49-235.23,0,0-1.05,0-2.08,0-3.12,0-59.87,53.39-101.93,102.57-128.57H219.1a9.93,9.93,0,0,1,0-19.86H238A158.36,158.36,0,0,1,186.77,108H308.53a158.36,158.36,0,0,1-51.24,38.62H276.2a9.93,9.93,0,1,1,0,19.86H265.08C314.25,193.09,362.94,235.15,362.94,295Z" style="fill:#283b44;opacity:0.941176"/><path d="M363.63,294.65c0,1,0,2.07,0,3.12-2.51,129.49-232.63,129.49-235.14,0,0-1,0-2.08,0-3.12,0-59.87,53.39-101.93,102.57-128.57H219.88a9.93,9.93,0,0,1,0-19.86h18.91a158.36,158.36,0,0,1-51.24-38.62H309.31a158.36,158.36,0,0,1-51.24,38.62H277a9.93,9.93,0,0,1,0,19.86H265.86C315,192.72,363.63,234.78,363.63,294.65Z" style="fill:#273840;opacity:0.960784"/><path d="M364.31,294.28c0,1,0,2.07,0,3.12-2.51,129.49-232.52,129.49-235,0,0-1,0-2.08,0-3.12,0-59.87,53.39-101.93,102.57-128.57H220.67a9.93,9.93,0,1,1,0-19.86h18.91a158.36,158.36,0,0,1-51.24-38.62H310.1a158.36,158.36,0,0,1-51.24,38.62h18.91a9.93,9.93,0,0,1,0,19.86H266.65C315.82,192.35,364.31,234.41,364.31,294.28Z" style="fill:#27353c;opacity:0.9803919999999999"/><path d="M365,293.91c0,1,0,2.07,0,3.12C362.46,426.52,132.54,426.52,130,297c0-1,0-2.08,0-3.12C130,234,183.39,192,232.57,165.34H221.45a9.93,9.93,0,1,1,0-19.86h18.91a158.36,158.36,0,0,1-51.24-38.62H310.88a158.36,158.36,0,0,1-51.24,38.62h18.91a9.93,9.93,0,0,1,0,19.86H267.43C316.6,192,365,234,365,293.91Z" style="fill:#263238"/></g><path d="M267.43,165.34C316.6,192,365,234,365,293.91c0,1,0,2.07,0,3.12C362.46,426.52,137.54,426.52,135,297c0-1,0-2.08,0-3.12C135,234,183.39,192,232.57,165.34Z" style="fill:#ffb74d"/><path d="M257.49,146.47a158.07,158.07,0,0,0,53.39-39.61H189.12a158.07,158.07,0,0,0,53.39,39.61Z" style="fill:#ffb74d"/><path d="M225.89,106.86c5.82,16.72,13,30.3,21.14,39.61h-4.52a157.94,157.94,0,0,1-53.38-39.61Z" style="fill:#ffa726"/><path d="M278.55,145.48h-57.1a9.92,9.92,0,0,0-9.93,9.93h0a9.93,9.93,0,0,0,9.93,9.93h57.1a9.93,9.93,0,0,0,9.93-9.93h0A9.92,9.92,0,0,0,278.55,145.48Z" style="fill:#37474f"/><path d="M268.26,313.46H220.88a5.75,5.75,0,1,0,0,11.49H243.6v14a5.75,5.75,0,0,0,11.49,0V325h13.17a15.31,15.31,0,0,0,15.3-15.31v-15.4a15.32,15.32,0,0,0-15.3-15.31H230.44a3.82,3.82,0,0,1-3.82-3.81V259.71a3.82,3.82,0,0,1,3.82-3.82h47.38a5.75,5.75,0,0,0,0-11.49H255.09v-14a5.75,5.75,0,0,0-11.49,0v14H230.44a15.33,15.33,0,0,0-15.31,15.31v15.41a15.32,15.32,0,0,0,15.31,15.3h37.82a3.83,3.83,0,0,1,3.82,3.82v15.4A3.83,3.83,0,0,1,268.26,313.46Z" style="fill:#eceff1"/><path d="M250,394.14h-2.33c-58.11-.84-110.49-32.7-112.6-95.6,0-.5,0-1,0-1.51q0-1.56,0-3.12C135,234,183.39,192,232.57,165.34h6.87c-29.81,26.64-50,78.7-50,138.56,0,1,0,2.08,0,3.12C190.18,371.77,220.09,394.14,250,394.14Z" style="fill:#ffa726"/></g></g></svg>